<?xml version="1.0" encoding="utf-8"?>
<!-- Generator: Adobe Illustrator 16.0.0, SVG Export Plug-In . SVG Version: 6.00 Build 0)  -->
<!DOCTYPE svg PUBLIC "-//W3C//DTD SVG 1.1//EN" "http://www.w3.org/Graphics/SVG/1.1/DTD/svg11.dtd">
<svg version="1.1" id="圖層_1" xmlns="http://www.w3.org/2000/svg" xmlns:xlink="http://www.w3.org/1999/xlink" x="0px" y="0px"
	 width="1551.156px" height="690.069px" viewBox="0 0 1551.156 690.069" enable-background="new 0 0 1551.156 690.069"
	 xml:space="preserve">
<g display="none">
	<path display="inline" opacity="0.4" fill="#9BCB68" d="M1341.335,284.414c19.629,0,35.537,15.896,35.537,35.535
		c0,19.617-15.908,35.537-35.537,35.537c-19.622,0-35.522-15.92-35.522-35.537C1305.813,300.31,1321.713,284.414,1341.335,284.414"
		/>
	<path display="inline" opacity="0.4" fill="#9BCB68" d="M1193.37,284.414c19.625,0,35.534,15.896,35.534,35.535
		c0,19.617-15.909,35.537-35.534,35.537c-19.626,0-35.535-15.92-35.535-35.537C1157.834,300.31,1173.744,284.414,1193.37,284.414"/>
	<path display="inline" opacity="0.4" fill="#9BCB68" d="M1471.044,443.874c-19.497,95.262-104.329,164.415-201.71,164.415
		c-95.817,0-178.195-65.012-200.341-158.136c-2.261-9.533,3.634-19.097,13.173-21.37c9.46-2.307,19.106,3.613,21.391,13.152
		c18.309,77.043,86.473,130.841,165.777,130.841c80.586,0,150.783-57.198,166.914-136.015c1.97-9.621,11.438-15.764,20.967-13.846
		C1466.821,424.879,1473.009,434.265,1471.044,443.874"/>
</g>
<g display="none">
	<path display="inline" opacity="0.4" fill="#D85885" d="M1347.054,257.336c29.416,0,53.346,23.933,53.346,53.349
		c0,9.802-7.956,17.757-17.758,17.757c-9.803,0-17.757-7.955-17.757-17.757c0-9.836-8.003-17.84-17.831-17.84
		c-9.844,0-17.847,8.004-17.847,17.84c0,9.802-7.955,17.757-17.756,17.757c-9.796,0-17.75-7.955-17.75-17.757
		C1293.709,281.281,1317.639,257.336,1347.054,257.336"/>
	<path display="inline" opacity="0.4" fill="#D85885" d="M1192.855,257.336c29.416,0,53.354,23.933,53.354,53.349
		c0,9.802-7.955,17.757-17.758,17.757s-17.758-7.955-17.758-17.757c0-9.836-8.002-17.84-17.838-17.84s-17.839,8.004-17.839,17.84
		c0,9.802-7.955,17.757-17.759,17.757c-9.798,0-17.756-7.955-17.756-17.757C1139.5,281.281,1163.438,257.336,1192.855,257.336"/>
	<path display="inline" opacity="0.4" fill="#D85885" d="M1269.962,601.2c-104.205,0-188.663-84.457-188.663-188.653h377.32
		C1458.62,516.743,1374.136,601.2,1269.962,601.2"/>
</g>
<g display="none">
	<path display="inline" opacity="0.4" fill="#EC6A5E" d="M1340.98,287.795c19.63,0,35.538,15.883,35.538,35.537
		c0,19.606-15.908,35.54-35.538,35.54s-35.538-15.933-35.538-35.54C1305.442,303.678,1321.35,287.795,1340.98,287.795"/>
	<path display="inline" opacity="0.4" fill="#EC6A5E" d="M1193.001,287.795c19.63,0,35.539,15.883,35.539,35.537
		c0,19.606-15.909,35.54-35.539,35.54c-19.622,0-35.536-15.933-35.536-35.54C1157.466,303.678,1173.38,287.795,1193.001,287.795"/>
	<path display="inline" opacity="0.4" fill="#EC6A5E" d="M1423.576,530.307c-6.568,7.279-17.808,7.836-25.092,1.268
		c-35.243-31.834-80.83-49.393-128.366-49.393c-47.675,0-93.362,17.646-128.668,49.658c-3.396,3.084-7.669,4.611-11.923,4.611
		c-4.826,0-9.633-1.969-13.148-5.822c-6.596-7.262-6.035-18.508,1.234-25.088c41.842-37.939,96.009-58.869,152.513-58.869
		c56.349,0,110.402,20.809,152.179,58.539C1429.573,511.803,1430.126,523.026,1423.576,530.307"/>
</g>
<g opacity="0.4">
	<path fill="#4183BD" d="M1159.963,457.17c38.711,38.715,96.292,44.578,141.251,17.604c0,0,3.253-1.938,5.993,0.805l59.587,59.59
		c11.889,11.884,28.507,14.714,39.047,4.174l1.814-1.814c10.54-10.54,7.71-27.158-4.174-39.047l-59.714-59.714
		c-2.618-2.613-0.681-5.866-0.681-5.866c26.975-44.959,21.107-102.54-17.603-141.255c-45.636-45.63-119.892-45.63-165.521,0
		C1114.329,337.28,1114.329,411.537,1159.963,457.17L1159.963,457.17z M1303.873,435.559c-33.72,33.722-88.583,33.722-122.304,0
		c-33.715-33.72-33.715-88.582,0-122.302c33.721-33.717,88.584-33.717,122.304,0
		C1337.593,346.977,1337.593,401.839,1303.873,435.559L1303.873,435.559z M1303.873,435.559"/>
	<path fill="#4183BD" d="M1296.406,367.461c-4.711,0-9.18-2.767-11.13-7.372c-11.148-26.349-41.656-38.716-68.004-27.564
		c-6.148,2.597-13.23-0.276-15.835-6.42c-2.6-6.143,0.276-13.23,6.42-15.83c38.616-16.343,83.325,1.778,99.669,40.398
		c2.599,6.144-0.276,13.231-6.421,15.83C1299.567,367.154,1297.974,367.461,1296.406,367.461L1296.406,367.461z M1296.406,367.461"
		/>
</g>
</svg>
