<?xml version="1.0" encoding="utf-8"?>
<!-- Generator: Adobe Illustrator 16.0.0, SVG Export Plug-In . SVG Version: 6.00 Build 0)  -->
<!DOCTYPE svg PUBLIC "-//W3C//DTD SVG 1.1//EN" "http://www.w3.org/Graphics/SVG/1.1/DTD/svg11.dtd">
<svg version="1.1" id="圖層_1" xmlns="http://www.w3.org/2000/svg" xmlns:xlink="http://www.w3.org/1999/xlink" x="0px" y="0px"
	 width="479.078px" height="448.535px" viewBox="1072.078 241.535 479.078 448.535"
	 enable-background="new 1072.078 241.535 479.078 448.535" xml:space="preserve">
<path display="none" opacity="0.4" fill="#D85885" enable-background="new    " d="M1175.774,41.933
	c-163.25,0-295.594,132.354-295.594,295.606c0,163.263,132.344,295.593,295.594,295.593c163.268,0,295.635-132.344,295.635-295.593
	C1471.391,174.28,1339.042,41.933,1175.774,41.933 M1252.89,172.303c29.416,0,53.349,23.933,53.349,53.349
	c0,9.802-7.956,17.757-17.761,17.757c-9.803,0-17.757-7.955-17.757-17.757c0-9.836-8.003-17.84-17.831-17.84
	c-9.844,0-17.847,8.004-17.847,17.84c0,9.802-7.955,17.757-17.756,17.757c-9.796,0-17.75-7.955-17.75-17.757
	C1199.545,196.248,1223.475,172.303,1252.89,172.303 M1098.69,172.303c29.416,0,53.354,23.933,53.354,53.349
	c0,9.802-7.954,17.757-17.757,17.757c-9.804,0-17.758-7.955-17.758-17.757c0-9.836-8.003-17.84-17.839-17.84
	s-17.842,8.004-17.842,17.84c0,9.802-7.953,17.757-17.759,17.757c-9.798,0-17.756-7.955-17.756-17.757
	C1045.336,196.248,1069.272,172.303,1098.69,172.303 M1175.798,516.167c-104.205,0-188.663-84.457-188.663-188.653h377.32
	C1364.456,431.71,1279.972,516.167,1175.798,516.167"/>
<path display="none" opacity="0.4" fill="#EC6A5E" enable-background="new    " d="M1175.774,41.921
	c-163.253,0-295.594,132.371-295.594,295.626c0,163.236,132.353,295.597,295.594,295.597c163.261,0,295.635-132.369,295.635-295.597
	C1471.391,174.28,1339.035,41.921,1175.774,41.921 M1247.172,209.356c19.63,0,35.538,15.883,35.538,35.537
	c0,19.606-15.908,35.539-35.538,35.539s-35.538-15.933-35.538-35.539C1211.634,225.239,1227.542,209.356,1247.172,209.356
	 M1099.193,209.356c19.63,0,35.538,15.883,35.538,35.537c0,19.606-15.908,35.539-35.539,35.539
	c-19.62,0-35.534-15.933-35.534-35.539C1063.658,225.239,1079.572,209.356,1099.193,209.356 M1329.768,451.869
	c-6.565,7.279-17.808,7.836-25.092,1.268c-35.243-31.834-80.83-49.393-128.366-49.393c-47.675,0-93.359,17.646-128.668,49.658
	c-3.396,3.084-7.669,4.607-11.923,4.607c-4.826,0-9.633-1.967-13.146-5.818c-6.599-7.264-6.035-18.512,1.231-25.09
	c41.843-37.938,96.009-58.867,152.516-58.867c56.349,0,110.399,20.809,152.179,58.539
	C1335.765,433.365,1336.319,444.585,1329.768,451.869"/>
<g>
	<path opacity="0.2" fill="#EC6A5E" enable-background="new    " d="M1478.158,269.717c28.647,0,51.862,23.18,51.862,51.862
		c0,28.611-23.215,51.865-51.862,51.865s-51.862-23.251-51.862-51.865C1426.295,292.896,1449.51,269.717,1478.158,269.717"/>
	<path opacity="0.2" fill="#EC6A5E" enable-background="new    " d="M1262.202,269.717c28.646,0,51.864,23.18,51.864,51.862
		c0,28.611-23.218,51.865-51.864,51.865c-28.636,0-51.859-23.251-51.859-51.865C1210.344,292.896,1233.567,269.717,1262.202,269.717
		"/>
	<path opacity="0.2" fill="#EC6A5E" enable-background="new    " d="M1598.696,623.631c-9.585,10.623-25.987,11.437-36.619,1.854
		c-51.432-46.458-117.96-72.088-187.332-72.088c-69.576,0-136.25,25.754-187.774,72.47c-4.956,4.502-11.192,6.73-17.4,6.73
		c-7.042,0-14.06-2.874-19.187-8.496c-9.627-10.598-8.808-27.011,1.8-36.613c61.063-55.366,140.113-85.912,222.573-85.912
		c82.235,0,161.116,30.373,222.087,85.432C1607.447,596.628,1608.255,613.009,1598.696,623.631"/>
</g>
</svg>
