<?xml version="1.0" encoding="utf-8"?>
<!-- Generator: Adobe Illustrator 16.0.0, SVG Export Plug-In . SVG Version: 6.00 Build 0)  -->
<!DOCTYPE svg PUBLIC "-//W3C//DTD SVG 1.1//EN" "http://www.w3.org/Graphics/SVG/1.1/DTD/svg11.dtd">
<svg version="1.1" id="圖層_1" xmlns="http://www.w3.org/2000/svg" xmlns:xlink="http://www.w3.org/1999/xlink" x="0px" y="0px"
	 width="20px" height="20px" viewBox="0 0 20 20" enable-background="new 0 0 20 20" xml:space="preserve">
<g>
	<path fill="#FFFFFF" d="M2.029,14.192c0-0.542-0.592-0.985-1.138-0.985h-0.88v3.296h0.88c0.546,0,1.138-0.462,1.138-1.005V14.192z
		 M2.029,14.192"/>
	<path fill="#FFFFFF" d="M18.577,8.229h0.76c0.373,0,0.652-0.3,0.652-0.673v-2.69c0-0.371-0.279-0.673-0.652-0.673h-0.028
		l-0.731,0.448V8.229z M18.577,8.229"/>
	<path fill="#FFFFFF" d="M19.315,2.58H3.269c-0.369,0-0.703,0.282-0.703,0.65v3.115h10.797c0.37,0,0.93-0.173,1.242-0.37
		l4.814-3.049c0.138-0.085,0.205-0.16,0.208-0.22C19.627,2.629,19.521,2.58,19.315,2.58L19.315,2.58z M19.315,2.58"/>
	<path fill="#FFFFFF" d="M8.823,9.845H16.9c0.371,0,0.666-0.277,0.666-0.65V5.279l-2.436,1.545c-0.47,0.298-1.21,0.53-1.769,0.53
		H2.565v1.84c0,0.373,0.334,0.65,0.703,0.65h2.26v0.837c0,0.059,0.021,0.116,0.029,0.174c0.08,0.497,0.508,1.007,0.996,1.007h0.183
		v1.011c0,0.802-0.667,1.477-1.485,1.477H3.037v1.011h2.214c1.388,0,2.497-1.115,2.497-2.487v-1.011h0.108
		c0.49,0,0.887-0.51,0.967-1.007c0.008-0.058,0-0.115,0-0.174V9.845z M8.823,9.845"/>
</g>
</svg>
