<?xml version="1.0" encoding="utf-8"?>
<!-- Generator: Adobe Illustrator 16.0.0, SVG Export Plug-In . SVG Version: 6.00 Build 0)  -->
<!DOCTYPE svg PUBLIC "-//W3C//DTD SVG 1.1//EN" "http://www.w3.org/Graphics/SVG/1.1/DTD/svg11.dtd">
<svg version="1.1" id="圖層_1" xmlns="http://www.w3.org/2000/svg" xmlns:xlink="http://www.w3.org/1999/xlink" x="0px" y="0px"
	 width="479.078px" height="448.535px" viewBox="0 0 479.078 448.535" enable-background="new 0 0 479.078 448.535"
	 xml:space="preserve">
<path opacity="0.2" fill="#9BCB68" enable-background="new    " d="M410.009,17.301c28.396,0,51.409,22.998,51.409,51.405
	c0,28.38-23.016,51.409-51.409,51.409c-28.386,0-51.386-23.029-51.386-51.409C358.623,40.297,381.623,17.301,410.009,17.301"/>
<path opacity="0.2" fill="#9BCB68" enable-background="new    " d="M195.96,17.301c28.391,0,51.401,22.998,51.401,51.405
	c0,28.38-23.013,51.409-51.401,51.409c-28.392,0-51.406-23.029-51.406-51.409C144.553,40.297,167.569,17.301,195.96,17.301"/>
<path opacity="0.2" fill="#9BCB68" enable-background="new    " d="M597.649,193.388c-28.206,137.81-150.927,237.848-291.8,237.848
	c-138.611,0-257.78-94.048-289.815-228.763c-3.271-13.791,5.257-27.63,19.059-30.916c13.685-3.338,27.637,5.227,30.941,19.023
	C92.521,302.033,191.132,379.86,305.85,379.86c116.578,0,218.126-82.745,241.461-196.767c2.852-13.917,16.548-22.806,30.331-20.028
	C591.539,165.905,600.491,179.485,597.649,193.388"/>
<path display="none" opacity="0.4" fill="#D85885" enable-background="new    " d="M1175.774,41.933
	c-163.25,0-295.596,132.354-295.596,295.606c0,163.263,132.346,295.593,295.596,295.593c163.268,0,295.635-132.344,295.635-295.593
	C1471.391,174.28,1339.042,41.933,1175.774,41.933 M1252.89,172.303c29.416,0,53.351,23.933,53.351,53.35
	c0,9.803-7.956,17.758-17.763,17.758c-9.803,0-17.757-7.955-17.757-17.758c0-9.835-8.003-17.839-17.831-17.839
	c-9.844,0-17.847,8.004-17.847,17.839c0,9.803-7.955,17.758-17.756,17.758c-9.796,0-17.75-7.955-17.75-17.758
	C1199.545,196.248,1223.475,172.303,1252.89,172.303 M1098.69,172.303c29.416,0,53.354,23.933,53.354,53.35
	c0,9.803-7.954,17.758-17.757,17.758c-9.804,0-17.758-7.955-17.758-17.758c0-9.835-8.003-17.839-17.839-17.839
	s-17.844,8.004-17.844,17.839c0,9.803-7.953,17.758-17.759,17.758c-9.798,0-17.756-7.955-17.756-17.758
	C1045.336,196.248,1069.272,172.303,1098.69,172.303 M1175.798,516.167c-104.205,0-188.663-84.457-188.663-188.653h377.32
	C1364.456,431.71,1279.972,516.167,1175.798,516.167"/>
<path display="none" opacity="0.4" fill="#EC6A5E" enable-background="new    " d="M1175.774,41.921
	c-163.253,0-295.596,132.371-295.596,295.626c0,163.236,132.354,295.597,295.596,295.597c163.261,0,295.635-132.367,295.635-295.597
	C1471.391,174.28,1339.035,41.921,1175.774,41.921 M1247.172,209.356c19.63,0,35.538,15.883,35.538,35.537
	c0,19.606-15.908,35.539-35.538,35.539s-35.538-15.933-35.538-35.539C1211.634,225.239,1227.542,209.356,1247.172,209.356
	 M1099.193,209.356c19.63,0,35.538,15.883,35.538,35.537c0,19.606-15.908,35.539-35.539,35.539
	c-19.62,0-35.534-15.933-35.534-35.539C1063.658,225.239,1079.572,209.356,1099.193,209.356 M1329.768,451.869
	c-6.563,7.279-17.808,7.836-25.092,1.268c-35.243-31.834-80.83-49.393-128.366-49.393c-47.675,0-93.357,17.646-128.668,49.658
	c-3.396,3.084-7.669,4.605-11.923,4.605c-4.826,0-9.633-1.967-13.146-5.816c-6.601-7.266-6.035-18.514,1.229-25.092
	c41.845-37.938,96.011-58.865,152.518-58.865c56.349,0,110.397,20.809,152.179,58.539
	C1335.765,433.365,1336.319,444.585,1329.768,451.869"/>
</svg>
