<?xml version="1.0" encoding="utf-8"?>
<!-- Generator: Adobe Illustrator 16.0.0, SVG Export Plug-In . SVG Version: 6.00 Build 0)  -->
<!DOCTYPE svg PUBLIC "-//W3C//DTD SVG 1.1//EN" "http://www.w3.org/Graphics/SVG/1.1/DTD/svg11.dtd">
<svg version="1.1" id="圖層_1" xmlns="http://www.w3.org/2000/svg" xmlns:xlink="http://www.w3.org/1999/xlink" x="0px" y="0px"
	 width="595.281px" height="475.768px" viewBox="0 0 595.281 475.768" enable-background="new 0 0 595.281 475.768"
	 xml:space="preserve">
<circle fill="#A0D468" cx="323.582" cy="238.116" r="236.884"/>
<path display="none" d="M78.161,347.29"/>
<path display="none" d="M522.842,437.473"/>
<g display="none">
	<path display="inline" fill="#FFFFFF" d="M218.508,289.012c-25.878,0-46.86,21.306-46.86,47.602c0,26.276,20.982,47.6,46.86,47.6
		c25.899,0,46.886-21.323,46.886-47.6C265.395,310.318,244.407,289.012,218.508,289.012z M218.508,352.342
		c-8.537,0-15.47-7.039-15.47-15.729s6.933-15.729,15.47-15.729c8.558,0,15.514,7.039,15.514,15.729
		C234.022,345.284,227.085,352.342,218.508,352.342z"/>
	<path display="inline" fill="#FFFFFF" d="M475.948,176.402h-98.792v97.112c0,0,2.577-0.645,15.49-0.645
		c28.795,0,43.388,14.36,50.396,25.44c3.664-3.864,8.783-6.312,14.482-6.312h46.884v-71.396L475.948,176.402z M484.32,251.204
		h-53.574v-54.391h40.178l13.396,21.671V251.204L484.32,251.204z"/>
	<path display="inline" fill="#FFFFFF" d="M155.742,244.392c0,0,110.493,20.831,125.143,74.807h50.64
		c0,0,6.298-33.997,32.251-43.351V162.796h117.816l19.472-27.187H350.377l-18.424,40.793H136.067v27.203h20.088L155.742,244.392z"/>
	<path display="inline" fill="#FFFFFF" d="M457.523,305.595c-3.12,0-5.624,2.22-6.371,5.159c-0.131,0.533-0.316,1.067-0.316,1.632
		v13.607c0,3.751,2.986,6.808,6.688,6.808h46.884c3.699,0,6.688-3.057,6.688-6.808v-13.607c0-3.737-2.989-6.792-6.688-6.792
		L457.523,305.595L457.523,305.595L457.523,305.595z"/>
	<path display="inline" fill="#FFFFFF" d="M439.438,334.702c-0.169-4.215-0.821-8.309-1.999-12.182
		c-5.924-19.41-23.713-33.506-44.792-33.506c-25.881,0-46.864,21.307-46.864,47.6c0,26.277,20.983,47.603,46.864,47.603
		c25.899,0,46.885-21.325,46.885-47.603C439.531,335.969,439.454,335.343,439.438,334.702z M392.646,352.342
		c-8.559,0-15.49-7.039-15.49-15.729s6.932-15.729,15.49-15.729s15.492,7.039,15.492,15.729
		C408.139,345.284,401.205,352.342,392.646,352.342z"/>
	<polygon display="inline" fill="#FFFFFF" points="334.758,132.351 327.769,115.216 307.681,115.216 290.097,88.015 264.14,88.015 
		236.524,122.011 215.313,122.011 196.351,142.406 181.827,142.406 159.498,162.796 320.236,162.796 	"/>
</g>
<path display="none" d="M341.942,182.196"/>
<g>
	<path fill="#FFFFFF" d="M538.914,213.598c-0.347,1.065-1.127,1.927-2.131,2.44l-48.971,24.101l-27.586,11.686
		c-0.534,0.246-1.089,0.348-1.642,0.348c-1.396,0-2.748-0.699-3.525-1.926c-1.109-1.725-0.821-3.998,0.676-5.371l10.577-9.697
		l16.767-16.086l-27.509-47.127c-0.8-1.375-0.737-3.117,0.146-4.452c0.902-1.326,2.478-2.047,4.079-1.82l18.322,2.562
		l-22.503-38.037l-24.474,12.069l4.661,100.719l-48.648,1.051v-20.992h28.244l-6.241-97.291l56.418-20.897l38.983,67.064
		l13.715,1.914c1.37,0.181,2.541,1.042,3.178,2.271l17.234,34.231C539.18,211.361,539.264,212.532,538.914,213.598L538.914,213.598z
		 M486.937,314.221c0,32.506-26.42,58.949-58.931,58.949H185.494c-32.506,0-58.948-26.443-58.948-58.949
		c0-17.484,7.709-33.186,19.838-43.992v-29.123c0-26.072,21.138-47.226,47.226-47.226c2.999,0,5.903,0.329,8.73,0.861v-84.795
		c0-4.635,3.774-8.406,8.408-8.406h128.604c3.834,0,7.193,2.604,8.139,6.314l34.58,100.721h5.063
		c-0.124,1.377-0.205,2.77-0.205,4.201v26.691l0.185,15.826h40.873C460.496,255.272,486.937,281.713,486.937,314.221
		L486.937,314.221z M219.15,201.445c2.009,1.29,3.919,2.748,5.719,4.341h139.367l-31.399-87.463H219.15V201.445z M465.946,314.221
		c0-20.928-17.014-37.941-37.94-37.941H185.494c-20.925,0-37.958,17.014-37.958,37.941c0,20.93,17.033,37.961,37.958,37.961h242.512
		C448.933,352.182,465.946,335.151,465.946,314.221L465.946,314.221z M412.328,298.295c-8.507,0-15.396,6.885-15.396,15.391
		s6.89,15.396,15.396,15.396c8.505,0,15.393-6.891,15.393-15.396S420.833,298.295,412.328,298.295L412.328,298.295z M205.36,298.295
		c-8.512,0-15.396,6.885-15.396,15.391s6.885,15.396,15.396,15.396c8.507,0,15.392-6.891,15.392-15.396
		C220.751,305.18,213.867,298.295,205.36,298.295L205.36,298.295z"/>
</g>
</svg>
