<?xml version="1.0" encoding="utf-8"?>
<!-- Generator: Adobe Illustrator 16.0.0, SVG Export Plug-In . SVG Version: 6.00 Build 0)  -->
<!DOCTYPE svg PUBLIC "-//W3C//DTD SVG 1.1//EN" "http://www.w3.org/Graphics/SVG/1.1/DTD/svg11.dtd">
<svg version="1.1" id="圖層_1" xmlns="http://www.w3.org/2000/svg" xmlns:xlink="http://www.w3.org/1999/xlink" x="0px" y="0px"
	 width="595.281px" height="436.536px" viewBox="0 202.873 595.281 436.536" enable-background="new 0 202.873 595.281 436.536"
	 xml:space="preserve">
<g>
	<path fill="#2C559B" d="M589.14,379.5c-0.491,1.509-1.596,2.728-3.018,3.456l-69.338,34.126l-39.061,16.545
		c-0.756,0.348-1.541,0.492-2.325,0.492c-1.975,0-3.891-0.992-4.991-2.727c-1.571-2.438-1.163-5.66,0.956-7.605l14.977-13.729
		l23.741-22.778l-38.95-66.729c-1.133-1.947-1.045-4.413,0.206-6.302c1.277-1.879,3.507-2.899,5.775-2.579l25.944,3.629
		l-31.864-53.857l-34.652,17.088l6.6,142.61l-68.884,1.488v-29.723h39.992l-8.837-137.757l79.884-29.589l55.198,94.959l19.419,2.709
		c1.942,0.256,3.599,1.476,4.5,3.217l24.403,48.471C589.517,376.335,589.635,377.993,589.14,379.5L589.14,379.5z M515.542,521.978
		c0,46.028-37.408,83.469-83.441,83.469H88.719c-46.027,0-83.467-37.44-83.467-83.469c0-24.758,10.916-46.99,28.09-62.291v-41.236
		c0-36.916,29.93-66.869,66.869-66.869c4.246,0,8.359,0.465,12.362,1.22V232.737c0-6.562,5.344-11.902,11.905-11.902h182.096
		c5.43,0,10.186,3.686,11.525,8.94l48.962,142.614h7.169c-0.175,1.949-0.291,3.923-0.291,5.949v37.794l0.261,22.407h57.874
		C478.104,438.508,515.542,475.946,515.542,521.978L515.542,521.978z M136.374,362.293c2.845,1.826,5.549,3.892,8.098,6.147h197.336
		l-44.461-123.842H136.374V362.293z M485.822,521.978c0-29.633-24.09-53.722-53.721-53.722H88.719
		c-29.628,0-53.747,24.089-53.747,53.722c0,29.632,24.118,53.75,53.747,53.75h343.382
		C461.732,575.728,485.822,551.61,485.822,521.978L485.822,521.978z M409.902,499.426c-12.046,0-21.8,9.75-21.8,21.794
		s9.754,21.8,21.8,21.8c12.042,0,21.795-9.756,21.795-21.8S421.944,499.426,409.902,499.426L409.902,499.426z M116.848,499.426
		c-12.052,0-21.799,9.75-21.799,21.794s9.748,21.8,21.799,21.8c12.045,0,21.793-9.756,21.793-21.8
		C138.64,509.176,128.893,499.426,116.848,499.426L116.848,499.426z"/>
</g>
</svg>
