<?xml version="1.0" encoding="utf-8"?>
<!-- Generator: Adobe Illustrator 16.0.0, SVG Export Plug-In . SVG Version: 6.00 Build 0)  -->
<!DOCTYPE svg PUBLIC "-//W3C//DTD SVG 1.1//EN" "http://www.w3.org/Graphics/SVG/1.1/DTD/svg11.dtd">
<svg version="1.1" id="圖層_1" xmlns="http://www.w3.org/2000/svg" xmlns:xlink="http://www.w3.org/1999/xlink" x="0px" y="0px"
	 width="595.281px" height="475.768px" viewBox="0 0 595.281 475.768" enable-background="new 0 0 595.281 475.768"
	 xml:space="preserve">
<path d="M78.161,347.29"/>
<path d="M522.842,437.473"/>
<path d="M341.942,182.196"/>
<g>
	<path fill="#FFFFFF" d="M534.914,214.126c-0.347,1.064-1.127,1.926-2.131,2.439l-48.971,24.102l-27.586,11.686
		c-0.534,0.246-1.089,0.348-1.642,0.348c-1.396,0-2.748-0.699-3.525-1.926c-1.109-1.725-0.821-3.998,0.676-5.371l10.577-9.697
		l16.767-16.086l-27.509-47.127c-0.8-1.375-0.737-3.117,0.146-4.452c0.902-1.326,2.478-2.047,4.079-1.819l18.322,2.562
		l-22.503-38.036l-24.474,12.068l4.661,100.719l-48.648,1.051v-20.992h28.244l-6.241-97.291l56.418-20.897l38.983,67.065
		l13.715,1.914c1.37,0.18,2.541,1.041,3.178,2.271l17.234,34.23C535.18,211.89,535.264,213.06,534.914,214.126L534.914,214.126z
		 M482.937,314.75c0,32.506-26.42,58.949-58.931,58.949H181.494c-32.506,0-58.948-26.443-58.948-58.949
		c0-17.484,7.709-33.186,19.838-43.992v-29.123c0-26.072,21.138-47.226,47.226-47.226c2.999,0,5.903,0.329,8.73,0.861v-84.795
		c0-4.635,3.774-8.406,8.408-8.406h128.604c3.834,0,7.193,2.604,8.139,6.314l34.58,100.72h5.063
		c-0.124,1.377-0.205,2.77-0.205,4.201v26.691l0.185,15.826h40.873C456.496,255.8,482.937,282.242,482.937,314.75L482.937,314.75z
		 M215.15,201.974c2.009,1.289,3.919,2.748,5.719,4.341h139.367l-31.399-87.463H215.15V201.974z M461.946,314.75
		c0-20.928-17.014-37.941-37.94-37.941H181.494c-20.925,0-37.958,17.014-37.958,37.941c0,20.93,17.033,37.961,37.958,37.961h242.512
		C444.933,352.71,461.946,335.679,461.946,314.75L461.946,314.75z M408.328,298.824c-8.507,0-15.396,6.885-15.396,15.391
		s6.89,15.396,15.396,15.396c8.505,0,15.393-6.891,15.393-15.396S416.833,298.824,408.328,298.824L408.328,298.824z M201.36,298.824
		c-8.512,0-15.396,6.885-15.396,15.391s6.885,15.396,15.396,15.396c8.507,0,15.392-6.891,15.392-15.396
		C216.751,305.708,209.867,298.824,201.36,298.824L201.36,298.824z"/>
</g>
</svg>
