<?xml version="1.0" encoding="utf-8"?>
<!-- Generator: Adobe Illustrator 16.0.0, SVG Export Plug-In . SVG Version: 6.00 Build 0)  -->
<!DOCTYPE svg PUBLIC "-//W3C//DTD SVG 1.1//EN" "http://www.w3.org/Graphics/SVG/1.1/DTD/svg11.dtd">
<svg version="1.1" id="圖層_1" xmlns="http://www.w3.org/2000/svg" xmlns:xlink="http://www.w3.org/1999/xlink" x="0px" y="0px"
	 width="20px" height="20px" viewBox="0 0 20 20" enable-background="new 0 0 20 20" xml:space="preserve">
<g>
	<polygon fill="#757575" points="2.368,2.287 5.301,2.287 5.301,1.315 1.396,1.315 1.396,5.22 2.368,5.22 	"/>
	<polygon fill="#757575" points="14.757,1.315 14.757,2.287 17.689,2.287 17.689,5.22 18.661,5.22 18.661,1.315 	"/>
	<polygon fill="#757575" points="17.689,17.608 14.757,17.608 14.757,18.58 18.661,18.58 18.661,14.676 17.689,14.676 	"/>
	<polygon fill="#757575" points="2.368,14.676 1.396,14.676 1.396,18.58 5.301,18.58 5.301,17.608 2.368,17.608 	"/>
</g>
<g>
	<path fill="#1FA643" d="M6.801,9.462c0.234-1.572,1.591-2.778,3.229-2.778c1.637,0,2.993,1.206,3.228,2.778h0.96
		c-0.239-2.1-2.023-3.731-4.188-3.731c-2.165,0-3.949,1.632-4.189,3.731H6.801z"/>
	<path fill="#1FA643" d="M13.257,10.434c-0.234,1.572-1.591,2.778-3.228,2.778c-1.638,0-2.994-1.206-3.229-2.778H5.84
		c0.24,2.1,2.024,3.731,4.189,3.731c2.164,0,3.948-1.632,4.188-3.731H13.257z"/>
	<circle fill="#393A3D" cx="10.029" cy="9.947" r="1.94"/>
	<path fill="#22AACD" d="M19.721,9.616c-0.043-0.06-1.094-1.462-2.799-2.879c-2.289-1.905-4.675-2.912-6.893-2.912
		c-2.219,0-4.604,1.007-6.894,2.912C1.432,8.154,0.38,9.557,0.338,9.616L0.091,9.947l0.247,0.332
		c0.042,0.059,1.094,1.461,2.798,2.879c2.29,1.905,4.675,2.912,6.894,2.912c2.218,0,4.604-1.007,6.893-2.912
		c1.705-1.418,2.756-2.82,2.799-2.879l0.246-0.332L19.721,9.616z M10.029,14.96c-4.063,0-7.567-3.847-8.536-5.013
		c0.968-1.168,4.467-5.013,8.536-5.013c4.062,0,7.566,3.847,8.535,5.014C17.597,11.115,14.098,14.96,10.029,14.96z"/>
</g>
</svg>
