<?xml version="1.0" encoding="utf-8"?>
<!-- Generator: Adobe Illustrator 16.0.0, SVG Export Plug-In . SVG Version: 6.00 Build 0)  -->
<!DOCTYPE svg PUBLIC "-//W3C//DTD SVG 1.1//EN" "http://www.w3.org/Graphics/SVG/1.1/DTD/svg11.dtd">
<svg version="1.1" id="圖層_1" xmlns="http://www.w3.org/2000/svg" xmlns:xlink="http://www.w3.org/1999/xlink" x="0px" y="0px"
	 width="54px" height="43px" viewBox="0 0 54 43" enable-background="new 0 0 54 43" xml:space="preserve">
<path fill="#FFFFFF" d="M8.164,23.693"/>
<path fill="#040000" d="M27,8.246"/>
<rect display="none" width="54" height="43"/>
<g display="none">
	<circle display="inline" fill="#FFFFFF" cx="36.855" cy="32.884" r="1.812"/>
	<path display="inline" fill="#FFFFFF" d="M12.728,20.455l1.074-1.99c0.092-0.168,0.202-0.323,0.319-0.469V9.892h13.38l1.198,3.338
		c0.48-0.313,1.046-0.499,1.652-0.499c0.094,0,0.186,0.017,0.278,0.025L29.225,8.66c-0.111-0.436-0.508-0.744-0.957-0.744H13.132
		c-0.546,0-0.99,0.445-0.99,0.99v9.977c-0.332-0.063-0.674-0.101-1.027-0.101c-1.581,0-3.003,0.662-4.014,1.72
		c0.153-0.024,0.307-0.048,0.466-0.048L12.728,20.455L12.728,20.455z"/>
	<circle display="inline" fill="#FFFFFF" cx="12.499" cy="32.884" r="1.812"/>
	<path display="inline" fill="#FFFFFF" d="M51.725,20.724l-2.029-4.027c-0.072-0.145-0.211-0.247-0.371-0.268l-1.615-0.225
		l-4.587-7.893l-6.64,2.459l0.619,9.678h2.328l-0.359-7.736l2.881-1.422l2.648,4.475l-2.158-0.301
		c-0.188-0.027-0.373,0.057-0.479,0.214c-0.104,0.157-0.111,0.361-0.02,0.524l2.576,4.409c0.449,0.148,0.867,0.389,1.215,0.736
		c0.597,0.595,0.937,1.426,0.935,2.277c0,0.052-0.013,0.101-0.015,0.151l4.848-2.384c0.118-0.061,0.211-0.163,0.25-0.288
		C51.793,20.979,51.783,20.841,51.725,20.724z"/>
	<path display="inline" fill="#FFFFFF" d="M35.908,28.48H38.7c2.463,0,4.466,2.002,4.466,4.465s-2.003,4.468-4.466,4.468H10.16
		c-2.462,0-4.466-2.005-4.466-4.468s2.004-4.465,4.466-4.465h4.823l-0.323-1.688c-0.039,0.001-0.077,0.002-0.116,0.002H7.567
		c-0.771,0-1.468-0.303-2.009-0.784v1.76c-1.428,1.271-2.335,3.119-2.335,5.176c0,3.826,3.112,6.938,6.937,6.938H38.7
		c3.825,0,6.935-3.111,6.935-6.938c0-2.676-1.525-4.996-3.75-6.152H36.52L35.908,28.48z"/>
	<polygon display="inline" fill="#FFFFFF" points="33.893,22.217 33.893,24.688 39.619,24.564 39.43,20.448 37.102,20.448 
		37.215,22.217 	"/>
	<path display="inline" fill="#FFFFFF" d="M33.889,26.012l-0.021-1.861v-3.143c0-0.168,0.008-0.331,0.021-0.494h-0.595l-2.663-7.757
		c-0.094-0.009-0.186-0.025-0.279-0.025c-0.605,0-1.172,0.186-1.651,0.499l2.495,6.956H14.796c-0.213-0.188-0.437-0.36-0.674-0.511
		v-1.679c-0.117,0.146-0.227,0.3-0.319,0.469l-1.074,1.99H7.567c-0.16,0-0.313,0.024-0.466,0.048
		c-0.954,0.998-1.543,2.348-1.543,3.836v1.671c0.542,0.481,1.238,0.784,2.009,0.784h6.977c0.039,0,0.078-0.001,0.116-0.002
		l0.323,1.688h20.925l0.611-1.688h5.364c-0.954-0.497-2.038-0.782-3.188-0.781H33.889z"/>
	<path display="inline" fill="#FFFFFF" d="M45.734,21.348c-0.348-0.348-0.767-0.588-1.217-0.736l0.664,1.136l-1.975,1.895
		l-1.245,1.144c-0.176,0.159-0.209,0.429-0.079,0.631c0.092,0.147,0.25,0.229,0.414,0.229c0.064,0,0.133-0.016,0.194-0.041
		l3.245-1.377l0.916-0.451c0.002-0.051,0.015-0.1,0.015-0.15C46.67,22.773,46.33,21.943,45.734,21.348z"/>
</g>
<path fill="#FFFFFF" d="M26.957,29.682h0.086c-0.012,0-0.024,0-0.038-0.002C26.988,29.682,26.972,29.682,26.957,29.682z"/>
<path fill="#FFFFFF" d="M42.347,27.693c-2.053,6.502-8.141,11.229-15.312,11.229s-13.256-4.727-15.311-11.229h-1.267
	c-0.453,0-0.876-0.114-1.259-0.303c2.024,7.975,9.243,13.899,17.838,13.899c8.495,0,15.646-5.787,17.766-13.621
	c-0.08,0.006-0.158,0.024-0.24,0.024H42.347z"/>
<path fill="#FFFFFF" d="M11.019,21.692c0.606-8.304,7.539-14.879,15.996-14.879c8.454,0,15.386,6.572,15.995,14.873h1.531
	c0.291,0,0.571,0.057,0.843,0.141C44.839,12.153,36.82,4.445,27.014,4.445c-9.988,0-18.126,7.994-18.397,17.917
	c0.501-0.411,1.128-0.668,1.818-0.668L11.019,21.692L11.019,21.692z"/>
<path fill="#FFFFFF" d="M26.267,30.223c0.58-0.779,1.082-1.623,1.467-2.529h-0.551L26.267,30.223z"/>
<path fill="#FFFFFF" d="M16.325,19.807c0.386-0.705,1.02-1.206,1.746-1.423c0.433-0.858,0.985-1.645,1.635-2.34l0.185-1.123
	c0.242-1.443,1.453-2.486,2.881-2.486c0.724,0,1.39,0.266,1.904,0.713c0.748-0.178,1.522-0.283,2.324-0.283
	c1.951,0,3.768,0.57,5.311,1.541c1.227,0.133,2.229,1.026,2.521,2.256c1.123,1.416,1.872,3.139,2.097,5.024h2.383
	c-0.598-6.268-5.889-11.188-12.31-11.188c-6.424,0-11.716,4.923-12.311,11.194h0.618L16.325,19.807z"/>
<path fill="#FFFFFF" d="M35.47,32.227c-0.033-0.002-0.065-0.004-0.099-0.009c-0.647-0.073-1.225-0.37-1.676-0.804
	c-1.511,0.918-3.277,1.457-5.171,1.457c-1.699,0-3.298-0.43-4.701-1.18c-0.499,0.396-1.134,0.629-1.838,0.629
	c-1.464,0-2.623-0.932-2.881-2.318l-0.442-2.309c-0.036,0-0.073,0.002-0.11,0.002h-1.416c1.885,4.429,6.28,7.543,11.388,7.543
	c3.214,0,6.138-1.243,8.339-3.26c-0.363,0.16-0.763,0.256-1.184,0.256L35.47,32.227z"/>
<path fill="#FFFFFF" d="M44.052,23.343H35.33c-0.521,0-0.994,0.351-1.183,0.87l-0.012,0.032l-1.363-7.104
	c-0.103-0.641-0.627-1.106-1.251-1.106c-0.613,0-1.138,0.46-1.246,1.097l-1.201,7.175l-0.714-3.382
	c-0.102-0.544-0.515-0.971-1.024-1.062c-0.525-0.097-1.048,0.171-1.313,0.653l-1.066,4.041l-1.41-9.357
	c-0.102-0.641-0.627-1.106-1.251-1.106c-0.616,0-1.139,0.461-1.246,1.098l-1.164,7.077L19.647,21
	c-0.102-0.544-0.516-0.972-1.026-1.063c-0.524-0.098-1.047,0.17-1.313,0.657l-1.486,2.754H9.947c-0.698,0-1.265,0.604-1.265,1.344
	c0,0.742,0.567,1.347,1.265,1.347h6.607c0.443,0,0.863-0.269,1.099-0.704l0.182-0.346l0.9,4.709
	c0.111,0.597,0.587,0.966,1.252,0.966c0.65,0,1.134-0.392,1.236-0.997l1.07-6.436l1.144,6.432c0.087,0.561,0.503,0.938,1.116,1.007
	c0.061,0.006,0.12,0.011,0.179,0.011c0.553,0,0.967-0.277,1.143-0.785l1.213-4.268l0.6,3.789c0.115,0.611,0.762,1.205,1.405,1.241
	c0.612-0.037,1.237-0.589,1.34-1.177l1.053-6.133l0.954,6.104c0.092,0.594,0.549,1.054,1.117,1.116l0.125,0.008
	c0.536,0,1.002-0.34,1.188-0.861l1.334-3.68h7.849c0.698,0,1.267-0.604,1.267-1.346c0.001-0.371-0.145-0.729-0.398-0.981
	C44.683,23.473,44.375,23.343,44.052,23.343z"/>
</svg>
