<?xml version="1.0" encoding="utf-8"?>
<!-- Generator: Adobe Illustrator 16.0.0, SVG Export Plug-In . SVG Version: 6.00 Build 0)  -->
<!DOCTYPE svg PUBLIC "-//W3C//DTD SVG 1.1//EN" "http://www.w3.org/Graphics/SVG/1.1/DTD/svg11.dtd">
<svg version="1.1" id="圖層_1" xmlns="http://www.w3.org/2000/svg" xmlns:xlink="http://www.w3.org/1999/xlink" x="0px" y="0px"
	 width="54px" height="43px" viewBox="0 0 54 43" enable-background="new 0 0 54 43" xml:space="preserve">
<path fill="#FFFFFF" d="M8.164,23.693"/>
<rect display="none" width="54" height="43"/>
<g display="none">
	<circle display="inline" fill="#FFFFFF" cx="36.855" cy="32.884" r="1.812"/>
	<path display="inline" fill="#FFFFFF" d="M12.728,20.455l1.074-1.99c0.092-0.168,0.202-0.323,0.319-0.469V9.892h13.38l1.198,3.338
		c0.48-0.313,1.046-0.499,1.652-0.499c0.094,0,0.186,0.017,0.278,0.025L29.225,8.66c-0.111-0.436-0.508-0.744-0.957-0.744H13.132
		c-0.546,0-0.99,0.445-0.99,0.99v9.977c-0.332-0.063-0.674-0.101-1.027-0.101c-1.581,0-3.003,0.662-4.014,1.72
		c0.153-0.024,0.307-0.048,0.466-0.048L12.728,20.455L12.728,20.455z"/>
	<circle display="inline" fill="#FFFFFF" cx="12.499" cy="32.884" r="1.812"/>
	<path display="inline" fill="#FFFFFF" d="M51.725,20.724l-2.029-4.027c-0.072-0.145-0.211-0.247-0.371-0.268l-1.615-0.225
		l-4.587-7.893l-6.64,2.459l0.619,9.678h2.328l-0.359-7.736l2.881-1.422l2.648,4.475l-2.158-0.301
		c-0.188-0.027-0.373,0.057-0.479,0.214c-0.104,0.157-0.111,0.361-0.02,0.524l2.576,4.409c0.449,0.148,0.867,0.389,1.215,0.736
		c0.597,0.595,0.937,1.426,0.935,2.277c0,0.052-0.013,0.101-0.015,0.151l4.848-2.384c0.118-0.061,0.211-0.163,0.25-0.288
		C51.793,20.979,51.783,20.841,51.725,20.724z"/>
	<path display="inline" fill="#FFFFFF" d="M35.908,28.48H38.7c2.463,0,4.466,2.002,4.466,4.465s-2.003,4.468-4.466,4.468H10.16
		c-2.462,0-4.466-2.005-4.466-4.468s2.004-4.465,4.466-4.465h4.823l-0.323-1.688c-0.039,0.001-0.077,0.002-0.116,0.002H7.567
		c-0.771,0-1.468-0.303-2.009-0.784v1.76c-1.428,1.271-2.335,3.119-2.335,5.176c0,3.826,3.112,6.938,6.937,6.938H38.7
		c3.825,0,6.935-3.111,6.935-6.938c0-2.676-1.525-4.996-3.75-6.152H36.52L35.908,28.48z"/>
	<polygon display="inline" fill="#FFFFFF" points="33.893,22.217 33.893,24.688 39.619,24.564 39.43,20.448 37.102,20.448 
		37.215,22.217 	"/>
	<path display="inline" fill="#FFFFFF" d="M33.889,26.012l-0.021-1.861v-3.143c0-0.168,0.008-0.331,0.021-0.494h-0.595l-2.663-7.757
		c-0.094-0.009-0.186-0.025-0.279-0.025c-0.605,0-1.172,0.186-1.651,0.499l2.495,6.956H14.796c-0.213-0.188-0.437-0.36-0.674-0.511
		v-1.679c-0.117,0.146-0.227,0.3-0.319,0.469l-1.074,1.99H7.567c-0.16,0-0.313,0.024-0.466,0.048
		c-0.954,0.998-1.543,2.348-1.543,3.836v1.671c0.542,0.481,1.238,0.784,2.009,0.784h6.977c0.039,0,0.078-0.001,0.116-0.002
		l0.323,1.688h20.925l0.611-1.688h5.364c-0.954-0.497-2.038-0.782-3.188-0.781H33.889z"/>
	<path display="inline" fill="#FFFFFF" d="M45.734,21.348c-0.348-0.348-0.767-0.588-1.217-0.736l0.664,1.136l-1.975,1.895
		l-1.245,1.144c-0.176,0.159-0.209,0.429-0.079,0.631c0.092,0.147,0.25,0.229,0.414,0.229c0.064,0,0.133-0.016,0.194-0.041
		l3.245-1.377l0.916-0.451c0.002-0.051,0.015-0.1,0.015-0.15C46.67,22.773,46.33,21.943,45.734,21.348z"/>
</g>
<g>
	<path fill="#FFFFFF" d="M37.383,7.938l-0.91,2.638c3.332,2.737,5.463,6.876,5.463,11.526c0,8.248-6.688,14.936-14.938,14.936
		c-0.852,0-1.559-0.074-2.275-0.217l-2.313,2.248c1.459,0.414,2.914,0.602,4.588,0.602c9.703,0,17.572-7.867,17.572-17.568
		C44.568,16.284,41.738,11.137,37.383,7.938z"/>
	<path fill="#FFFFFF" d="M12.059,22.1c0-8.251,6.689-14.938,14.938-14.938c1.135,0,2.244,0.132,3.305,0.371l2.139-2.124
		c-1.717-0.562-3.543-0.876-5.447-0.876C17.295,4.533,9.43,12.397,9.43,22.1c0,5.871,2.891,11.051,7.316,14.24l0.967-2.557
		C14.27,31.047,12.059,26.838,12.059,22.1z"/>
	<polygon fill="#FFFFFF" points="36.377,4.445 15.301,25.396 23.121,25.396 17.109,41.295 38.691,20.343 30.873,20.343 	"/>
</g>
</svg>
