<?xml version="1.0" encoding="utf-8"?>
<!-- Generator: Adobe Illustrator 23.0.3, SVG Export Plug-In . SVG Version: 6.00 Build 0)  -->
<svg version="1.1" id="圖層_1" xmlns="http://www.w3.org/2000/svg" xmlns:xlink="http://www.w3.org/1999/xlink" x="0px" y="0px"
	 viewBox="0 0 54 43" style="enable-background:new 0 0 54 43;" xml:space="preserve">
<style type="text/css">
	.st0{display:none;}
	.st1{display:inline;fill:#FFFFFF;}
	.st2{display:inline;}
	.st3{clip-path:url(#SVGID_2_);fill:#FFFFFF;}
	.st4{display:inline;fill:#FEFEFE;}
	.st5{fill:#FFFFFF;}
</style>
<rect class="st0" width="54" height="43"/>
<g id="清淤" class="st0">
	<path class="st1" d="M51.8,21.1c0,0.1-0.1,0.2-0.3,0.3l-5.8,2.8l-3.2,1.4c-0.1,0-0.1,0-0.2,0c-0.2,0-0.3-0.1-0.4-0.2
		c-0.1-0.2-0.1-0.5,0.1-0.6l1.2-1.1l2-1.9L42,16.3c-0.1-0.2-0.1-0.4,0-0.5c0.1-0.2,0.3-0.2,0.5-0.2l2.2,0.3l-2.6-4.5l-2.9,1.4
		l0.5,11.9L34,24.8v-2.5h3.3l-0.7-11.4l6.6-2.5l4.6,7.9l1.6,0.2c0.2,0,0.3,0.1,0.4,0.3l2,4C51.8,20.8,51.8,21,51.8,21.1L51.8,21.1z
		 M45.6,32.9c0,3.8-3.1,6.9-6.9,6.9H10.2c-3.8,0-6.9-3.1-6.9-6.9c0-2.1,0.9-3.9,2.3-5.2v-3.4c0-3.1,2.5-5.6,5.6-5.6
		c0.4,0,0.7,0,1,0.1v-10c0-0.5,0.4-1,1-1h15.1c0.5,0,0.8,0.3,1,0.7l4.1,11.9H34c0,0.2,0,0.3,0,0.5V24v1.9h4.8
		C42.5,26,45.6,29.1,45.6,32.9L45.6,32.9z M14.1,19.7c0.2,0.2,0.5,0.3,0.7,0.5h16.4L27.5,9.9H14.1V19.7z M43.2,32.9
		c0-2.5-2-4.5-4.5-4.5H10.2c-2.5,0-4.5,2-4.5,4.5s2,4.5,4.5,4.5h28.5C41.2,37.4,43.2,35.4,43.2,32.9L43.2,32.9z M36.9,31.1
		c-1,0-1.8,0.8-1.8,1.8c0,1,0.8,1.8,1.8,1.8s1.8-0.8,1.8-1.8C38.7,31.9,37.9,31.1,36.9,31.1L36.9,31.1z M12.5,31.1
		c-1,0-1.8,0.8-1.8,1.8c0,1,0.8,1.8,1.8,1.8s1.8-0.8,1.8-1.8C14.3,31.9,13.5,31.1,12.5,31.1L12.5,31.1z"/>
</g>
<g id="工程" class="st0">
	<polygon class="st1" points="19.6,23.9 35.4,23.9 33.9,19.8 21.1,19.8 	"/>
	<path class="st1" d="M32.2,15.3L29.9,9l0,0c-0.2-1.1-1.2-1.9-2.3-1.9c-1.2,0-2.1,0.8-2.3,1.9l0,0l-2.4,6.3
		C22.8,15.3,32.2,15.3,32.2,15.3z"/>
	<path class="st1" d="M42.4,36.1h-2.5L37,28.4H17.9L15,36.1h-2.5c-0.3,0-0.5,0.2-0.5,0.5v2.9c0,0.3,0.2,0.5,0.5,0.5h29.8
		c0.3,0,0.5-0.2,0.5-0.5v-2.9C42.9,36.3,42.7,36.1,42.4,36.1z"/>
</g>
<g id="水質" class="st0">
	<g class="st2">
		<g>
			<g>
				<defs>
					<rect id="SVGID_1_" x="6.6" y="8.1" width="42" height="33.2"/>
				</defs>
				<clipPath id="SVGID_2_">
					<use xlink:href="#SVGID_1_"  style="overflow:visible;"/>
				</clipPath>
				<path class="st3" d="M47,10.2c-0.8-0.8-2-0.8-2.7,0l-3.5,3.5c-0.4,0.4-0.6,0.9-0.6,1.4v21.1H14.5v-21c0-0.5-0.2-1-0.6-1.4l-4-4
					C9.2,9,8,9,7.2,9.7c-0.8,0.8-0.8,2,0,2.7l3.5,3.5V38c0,1.1,0.9,1.9,1.9,1.9h29.5c1.1,0,1.9-0.9,1.9-1.9V15.8l3-3
					C47.7,12.1,47.7,10.9,47,10.2L47,10.2z"/>
			</g>
		</g>
	</g>
	<path class="st4" d="M26.5,20.5c1.5,1.6,3.6,3.1,6.1,3.1s4.5-1.7,5.5-3.6c-1.5,1.5-3.5,2.6-5.5,2.4c-1.9-0.2-3.6-1.5-5-3
		c-0.8-0.8-1.7-1.5-2.7-2.1c-1-0.5-2.2-0.9-3.4-0.8c-2.5,0-4.5,1.7-5.6,3.5c1.6-1.5,3.6-2.5,5.5-2.4C23.3,17.8,25.1,19,26.5,20.5
		L26.5,20.5z"/>
	<path class="st4" d="M26.8,10.4c0,1.1-0.9,1.9-1.9,1.9c-1.1,0-2-0.9-2-1.9c0-1.1,0.9-2,2-2S26.8,9.3,26.8,10.4L26.8,10.4z"/>
	<path class="st4" d="M30.9,12.7c0,0.4-0.4,0.8-0.8,0.8s-0.8-0.4-0.8-0.8c0-0.5,0.4-0.8,0.8-0.8S30.9,12.3,30.9,12.7L30.9,12.7z"/>
	<path class="st4" d="M34,8.9c0,0.4-0.4,0.8-0.8,0.8c-0.4,0-0.8-0.4-0.8-0.8c0-0.4,0.4-0.8,0.8-0.8C33.6,8.1,34,8.4,34,8.9L34,8.9z"
		/>
	<path class="st4" d="M31.3,29.8c0,1,0.9,1.9,1.9,1.9s1.9-0.9,1.9-1.9s-0.8-1.9-1.9-1.9S31.3,28.8,31.3,29.8L31.3,29.8z M34.3,29.8
		c0,0.6-0.5,1.1-1.1,1.1s-1.1-0.5-1.1-1.1s0.5-1.1,1.1-1.1C33.8,28.7,34.3,29.2,34.3,29.8L34.3,29.8z"/>
	<path class="st4" d="M18.8,26.4c0,1.6,1.3,2.9,2.9,2.9s2.9-1.3,2.9-2.9s-1.3-2.9-2.9-2.9C20.1,23.5,18.8,24.8,18.8,26.4L18.8,26.4z
		 M23.7,26.4c0,1.1-0.9,2.1-2.1,2.1c-1.1,0-2.1-0.9-2.1-2.1s0.9-2.1,2.1-2.1C22.8,24.3,23.7,25.2,23.7,26.4L23.7,26.4z"/>
</g>
<g id="水情">
	<rect x="5" y="5.1" class="st5" width="9.9" height="4.6"/>
	<rect x="5" y="12" class="st5" width="9.9" height="4.6"/>
	<rect x="5" y="18.8" class="st5" width="9.9" height="4.6"/>
	<rect x="5" y="25.6" class="st5" width="9.9" height="4.6"/>
	<rect x="5" y="32.4" class="st5" width="9.9" height="4.6"/>
	<polygon class="st5" points="30.2,37 17,37 17,5.1 23,5.1 	"/>
	<path class="st5" d="M40.1,30.5c-1.6,0-3.1-0.5-4.5-1.4c-1.8-0.8-4.5,0.7-4.6,0.8l-1.8-3.7c0.2-0.1,4.2-2.7,7.7-1l0.2,0.1
		c1.3,0.9,3,1.1,4.5,0.7c3.6-1.1,6-0.2,6.3-0.1v4h-1.1c0,0-1.7-0.6-4.4,0.2C41.7,30.3,40.9,30.5,40.1,30.5z"/>
	<path class="st5" d="M40.4,36.6c-1.4,0-2.8-0.5-4.1-1.4c-1.5-0.8-2.9,0.3-3,0.3l-1.7-3.2c0.1-0.1,2.9-2.4,6.1-0.6l0.2,0.1
		c1.1,0.9,2.5,1.1,3.8,0.7c3.3-1.1,6-0.2,6.3-0.1V36c0,0-3.2-0.6-5.4,0.2C41.8,36.5,41.1,36.6,40.4,36.6z"/>
</g>
</svg>
