<?xml version="1.0" encoding="utf-8"?>
<!-- Generator: Adobe Illustrator 16.0.0, SVG Export Plug-In . SVG Version: 6.00 Build 0)  -->
<!DOCTYPE svg PUBLIC "-//W3C//DTD SVG 1.1//EN" "http://www.w3.org/Graphics/SVG/1.1/DTD/svg11.dtd">
<svg version="1.1" id="圖層_1" xmlns="http://www.w3.org/2000/svg" xmlns:xlink="http://www.w3.org/1999/xlink" x="0px" y="0px"
	 width="54px" height="43px" viewBox="0 0 54 43" enable-background="new 0 0 54 43" xml:space="preserve">
<rect display="none" width="54" height="43"/>
<g id="清淤" display="none">
	<path display="inline" fill="#FFFFFF" d="M51.751,21.104c-0.039,0.125-0.132,0.227-0.25,0.288l-5.763,2.835l-3.246,1.376
		c-0.063,0.028-0.129,0.041-0.194,0.041c-0.164,0-0.323-0.082-0.414-0.228c-0.13-0.202-0.097-0.47,0.079-0.631l1.245-1.143
		l1.974-1.893l-3.238-5.545c-0.094-0.163-0.085-0.367,0.017-0.524c0.107-0.157,0.292-0.241,0.481-0.214l2.157,0.301l-2.649-4.477
		l-2.88,1.422l0.549,11.852l-5.726,0.124v-2.471h3.323L36.482,10.77l6.639-2.459l4.587,7.893l1.615,0.225
		c0.161,0.021,0.299,0.123,0.373,0.268l2.028,4.027C51.783,20.841,51.793,20.979,51.751,21.104L51.751,21.104z M45.635,32.946
		c0,3.825-3.109,6.938-6.935,6.938h-28.54c-3.825,0-6.937-3.112-6.937-6.938c0-2.058,0.907-3.905,2.335-5.177v-3.428
		c0-3.068,2.486-5.557,5.557-5.557c0.353,0,0.695,0.038,1.027,0.101V8.907c0-0.545,0.444-0.99,0.99-0.99h15.135
		c0.451,0,0.846,0.308,0.958,0.744l4.069,11.853h0.595c-0.014,0.163-0.023,0.326-0.023,0.494v3.142l0.022,1.861h4.809
		C42.522,26.01,45.635,29.121,45.635,32.946L45.635,32.946z M14.121,19.675c0.237,0.151,0.461,0.323,0.674,0.511h16.4L27.501,9.892
		h-13.38V19.675z M43.166,32.946c0-2.463-2.003-4.465-4.466-4.465h-28.54c-2.462,0-4.466,2.002-4.466,4.465
		c0,2.462,2.004,4.467,4.466,4.467H38.7C41.163,37.413,43.166,35.408,43.166,32.946L43.166,32.946z M36.855,31.072
		c-1.001,0-1.812,0.811-1.812,1.812s0.811,1.812,1.812,1.812s1.812-0.812,1.812-1.812C38.667,31.883,37.856,31.072,36.855,31.072
		L36.855,31.072z M12.499,31.072c-1.001,0-1.812,0.811-1.812,1.812s0.811,1.812,1.812,1.812s1.812-0.812,1.812-1.812
		C14.311,31.883,13.5,31.072,12.499,31.072L12.499,31.072z"/>
</g>
<g id="工程" display="none">
	<polygon display="inline" fill="#FFFFFF" points="19.592,23.869 35.415,23.869 33.9,19.777 21.113,19.777 	"/>
	<path display="inline" fill="#FFFFFF" d="M32.231,15.273L29.89,8.946h-0.044c-0.21-1.061-1.174-1.863-2.333-1.863
		c-1.16,0-2.124,0.802-2.332,1.863h-0.044l-2.351,6.327H32.231z"/>
	<path display="inline" fill="#FFFFFF" d="M42.403,36.078h-2.467l-2.854-7.707H17.919l-2.864,7.707h-2.467
		c-0.279,0-0.505,0.218-0.505,0.487v2.864c0,0.27,0.226,0.487,0.505,0.487h29.815c0.278,0,0.506-0.218,0.506-0.487v-2.864
		C42.909,36.296,42.682,36.078,42.403,36.078z"/>
</g>
<g id="水質" display="none">
	<g display="inline">
		<defs>
			<rect id="SVGID_1_" x="6.64" y="8.083" width="42.027" height="33.212"/>
		</defs>
		<clipPath id="SVGID_2_">
			<use xlink:href="#SVGID_1_"  overflow="visible"/>
		</clipPath>
		<path clip-path="url(#SVGID_2_)" fill="#FFFFFF" d="M46.963,10.17c-0.755-0.755-1.969-0.755-2.724,0l-3.527,3.515
			c-0.353,0.366-0.565,0.86-0.565,1.368v21.089H14.528V15.125c0-0.507-0.199-1.003-0.564-1.354L9.93,9.724
			c-0.754-0.743-1.968-0.755-2.722,0c-0.755,0.754-0.755,1.969,0,2.724l3.466,3.478v22.139c0,1.063,0.861,1.923,1.924,1.923h29.471
			c1.073,0,1.935-0.86,1.935-1.923V15.844l2.96-2.959C47.718,12.142,47.718,10.913,46.963,10.17L46.963,10.17z M46.963,10.17"/>
	</g>
	<path display="inline" fill="#FEFEFE" d="M26.464,20.454c1.51,1.57,3.589,3.115,6.063,3.104c2.479,0.012,4.483-1.675,5.509-3.562
		c-1.521,1.544-3.537,2.572-5.46,2.357c-1.924-0.211-3.599-1.474-5.012-2.971c-0.804-0.804-1.7-1.546-2.739-2.097
		c-1.023-0.532-2.216-0.91-3.417-0.841c-2.455,0.086-4.448,1.712-5.523,3.563c1.559-1.498,3.575-2.5,5.497-2.371
		C23.327,17.779,25.051,18.979,26.464,20.454L26.464,20.454z M26.464,20.454"/>
	<path display="inline" fill="#FEFEFE" d="M26.833,10.395c0,1.075-0.876,1.947-1.948,1.947c-1.083,0-1.956-0.872-1.956-1.947
		c0-1.083,0.873-1.957,1.956-1.957C25.957,8.438,26.833,9.311,26.833,10.395L26.833,10.395z M26.833,10.395"/>
	<path display="inline" fill="#FEFEFE" d="M30.877,12.743c0,0.434-0.355,0.8-0.801,0.8c-0.439,0-0.806-0.366-0.806-0.8
		c0-0.451,0.366-0.816,0.806-0.816C30.521,11.927,30.877,12.292,30.877,12.743L30.877,12.743z M30.877,12.743"/>
	<path display="inline" fill="#FEFEFE" d="M33.979,8.885c0,0.45-0.354,0.803-0.804,0.803c-0.435,0-0.801-0.354-0.801-0.803
		c0-0.447,0.366-0.801,0.801-0.801C33.624,8.083,33.979,8.438,33.979,8.885L33.979,8.885z M33.979,8.885"/>
	<path display="inline" fill="#FEFEFE" d="M31.289,29.82c0,1.05,0.85,1.887,1.886,1.887c1.039,0,1.889-0.85,1.889-1.887
		c0-1.05-0.85-1.888-1.889-1.888C32.139,27.933,31.289,28.771,31.289,29.82L31.289,29.82z M34.297,29.82
		c0,0.613-0.508,1.12-1.122,1.12c-0.612,0-1.119-0.507-1.119-1.12s0.507-1.121,1.119-1.121
		C33.789,28.699,34.297,29.207,34.297,29.82L34.297,29.82z M34.297,29.82"/>
	<path display="inline" fill="#FEFEFE" d="M18.777,26.353c0,1.569,1.283,2.854,2.853,2.854c1.567,0,2.854-1.285,2.854-2.854
		c0-1.568-1.287-2.855-2.854-2.855C20.06,23.497,18.777,24.784,18.777,26.353L18.777,26.353z M23.704,26.353
		c0,1.144-0.928,2.076-2.074,2.076c-1.144,0-2.089-0.933-2.089-2.076c0-1.143,0.945-2.075,2.089-2.075
		C22.775,24.277,23.704,25.21,23.704,26.353L23.704,26.353z M23.704,26.353"/>
</g>
<g id="水情" display="none">
	<rect x="4.991" y="7.142" display="inline" fill="#FFFFFF" width="9.911" height="4.612"/>
	<rect x="4.991" y="13.953" display="inline" fill="#FFFFFF" width="9.911" height="4.612"/>
	<rect x="4.991" y="20.765" display="inline" fill="#FFFFFF" width="9.911" height="4.612"/>
	<rect x="4.991" y="27.576" display="inline" fill="#FFFFFF" width="9.911" height="4.612"/>
	<rect x="4.991" y="34.388" display="inline" fill="#FFFFFF" width="9.911" height="4.612"/>
	<polygon display="inline" fill="#FFFFFF" points="30.236,39 17.043,39 17.043,7.142 22.95,7.142 	"/>
	<path display="inline" fill="#FFFFFF" d="M40.138,32.454c-1.576,0-3.143-0.461-4.516-1.354c-1.819-0.83-4.53,0.747-4.553,0.764
		l-1.773-3.656c0.153-0.113,4.232-2.744,7.697-1.019l0.181,0.105c1.333,0.894,2.972,1.14,4.494,0.675
		c3.616-1.105,6.018-0.216,6.279-0.11v4.048h-1.071c-0.002,0-1.723-0.615-4.375,0.194C41.727,32.337,40.932,32.454,40.138,32.454z"
		/>
	<path display="inline" fill="#FFFFFF" d="M40.359,38.617c-1.422,0-2.833-0.468-4.068-1.377c-1.524-0.774-2.939,0.313-2.96,0.329
		l-1.734-3.182c0.14-0.115,2.906-2.366,6.059-0.593l0.171,0.111c1.142,0.867,2.54,1.108,3.836,0.659
		c3.255-1.125,6.047-0.214,6.285-0.106v3.596c-0.041-0.017-3.163-0.589-5.444,0.2C41.8,38.497,41.078,38.617,40.359,38.617z"/>
</g>
<g id="雨量">
	<path fill="#FFFFFF" d="M31.666,34.807c-0.739,0-1.34,0.596-1.34,1.354v2.653c0,0.745,0.594,1.353,1.34,1.353
		c0.738,0,1.34-0.596,1.34-1.353v-2.653C33.006,35.415,32.41,34.807,31.666,34.807L31.666,34.807z M31.666,34.807"/>
	<path fill="#FFFFFF" d="M20.959,34.807c-0.745,0-1.339,0.596-1.339,1.354v2.653c0,0.745,0.595,1.353,1.339,1.353
		c0.739,0,1.334-0.596,1.334-1.353v-2.653C22.293,35.415,21.698,34.807,20.959,34.807L20.959,34.807z M20.959,34.807"/>
	<path fill="#FFFFFF" d="M37.019,32.135c-0.738,0-1.34,0.595-1.34,1.352v2.647c0,0.745,0.595,1.354,1.34,1.354
		c0.738,0,1.34-0.595,1.34-1.354v-2.647C38.358,32.735,37.764,32.135,37.019,32.135L37.019,32.135z M37.019,32.135"/>
	<path fill="#FFFFFF" d="M26.313,32.135c-0.738,0-1.34,0.595-1.34,1.352v2.647c0,0.745,0.595,1.354,1.34,1.354
		c0.739,0,1.34-0.595,1.34-1.354v-2.647C27.652,32.735,27.058,32.135,26.313,32.135L26.313,32.135z M26.313,32.135"/>
	<path fill="#FFFFFF" d="M15.601,32.135c-0.739,0-1.333,0.595-1.333,1.352v2.647c0,0.745,0.595,1.354,1.333,1.354
		c0.745,0,1.34-0.595,1.34-1.354v-2.647C16.94,32.735,16.345,32.135,15.601,32.135L15.601,32.135z M15.601,32.135"/>
	<path fill="#FFFFFF" d="M41.821,16.007c-1.241-3.294-4.424-5.64-8.149-5.64c-0.855,0-1.687,0.124-2.47,0.359
		c-2.126-3.431-5.915-5.382-10.243-5.382c-6.568,0-11.907,4.925-12.044,11.455c-2.405,1.392-4.02,2.997-4.02,5.965
		c0,4.432,3.595,8.032,8.032,8.032h26.771c4.432,0,8.032-3.608,8.032-8.032C47.73,19.063,45.229,16.935,41.821,16.007L41.821,16.007
		z M39.698,28.113H12.92c-2.948,0-5.347-2.391-5.347-5.351c0-2.53,1.759-3.671,4.131-4.227c-0.078-0.477-0.117-0.974-0.117-1.477
		c0-5.177,4.196-9.037,9.372-9.037c4.229,0,7.805,2.474,8.968,6.324c1.032-0.817,2.327-1.301,3.745-1.301
		c3.104,0,5.653,2.34,5.986,5.353h0.04c2.954,0,5.354,1.409,5.354,4.364C45.052,25.717,42.659,28.113,39.698,28.113L39.698,28.113z
		 M39.698,28.113"/>
</g>
</svg>
