<?xml version="1.0" encoding="utf-8"?>
<!-- Generator: Adobe Illustrator 23.0.3, SVG Export Plug-In . SVG Version: 6.00 Build 0)  -->
<svg version="1.1" id="圖層_1" xmlns="http://www.w3.org/2000/svg" xmlns:xlink="http://www.w3.org/1999/xlink" x="0px" y="0px"
	 viewBox="0 0 54 43" style="enable-background:new 0 0 54 43;" xml:space="preserve">
<style type="text/css">
	.st0{display:none;}
	.st1{display:inline;fill:#FFFFFF;}
	.st2{display:inline;}
	.st3{clip-path:url(#SVGID_2_);fill:#FFFFFF;}
	.st4{clip-path:url(#SVGID_4_);fill:#FFFFFF;}
	.st5{clip-path:url(#SVGID_6_);fill:#FFFFFF;}
	.st6{display:inline;fill:#FEFEFE;}
	.st7{fill:#FFFFFF;}
	.st8{fill:#FFFFFF;stroke:#FFFFFF;stroke-miterlimit:10;}
</style>
<rect class="st0" width="54" height="43"/>
<g id="清淤" class="st0">
	<path class="st1" d="M12.5,34.7c1,0,1.8-0.8,1.8-1.8s-0.8-1.8-1.8-1.8s-1.8,0.8-1.8,1.8S11.5,34.7,12.5,34.7z"/>
	<path class="st1" d="M42.6,35.1c-0.8,1.4-2.2,2.3-3.9,2.3H10.2c-2.5,0-4.5-2-4.5-4.5s2-4.5,4.5-4.5H23c-0.6-1.6-1-3.3-1-5.1
		c0-1.1,0.1-2.1,0.4-3.1h-7.6c-0.2-0.2-0.5-0.3-0.7-0.5V9.9h13.4l0.4,1.2l1.6-2l-0.2-0.7c-0.2-0.4-0.5-0.7-1-0.7H13.2
		c-0.6,0-1,0.5-1,1v10c-0.3-0.1-0.6-0.1-1-0.1c-3.1,0-5.6,2.5-5.6,5.6v3.4c-1.4,1.3-2.3,3.1-2.3,5.2c0,3.8,3.1,6.9,6.9,6.9h28.5
		c3.8,0,6.9-3.1,6.9-6.9c0-0.1,0-0.2,0-0.3C44.7,33.6,43.7,34.4,42.6,35.1z"/>
	<path class="st1" d="M49.8,16.8c-0.1-0.2-0.2-0.3-0.4-0.3l-1.6-0.2l-4.6-7.9L41.5,9l4.8,5.9c1.7,2.1,2.7,4.8,2.9,7.6l2.4-1.1
		c0.2-0.1,0.3-0.2,0.3-0.3c0-0.1,0-0.3,0-0.3L49.8,16.8z"/>
	<path class="st1" d="M41.5,9l-4.9,1.9l0.7,11.4H34V24v0.8l5.7-0.1l-0.5-11.9l2.9-1.4l2.6,4.5l-2.2-0.3c-0.2,0-0.4,0-0.5,0.2
		c-0.1,0.1-0.1,0.3,0,0.5l3.2,5.5l-2,1.9L42,24.8c-0.2,0.1-0.2,0.4-0.1,0.6c0.1,0.1,0.2,0.2,0.4,0.2c0.1,0,0.1,0,0.2,0l3.2-1.4
		l3.4-1.7C49,19.8,48,17,46.3,14.9L41.5,9z"/>
	<path class="st1" d="M36.9,34.7c1,0,1.8-0.8,1.8-1.8s-0.8-1.8-1.8-1.8s-1.8,0.8-1.8,1.8S35.9,34.7,36.9,34.7z"/>
	<path class="st1" d="M38.8,25.9H34v-1.1V24v-1.7v-1.4c0-0.2,0-0.3,0-0.5h-0.6L29.5,9.2l-1.6,2l3.3,9.1h-8.8c-0.2,1-0.4,2.1-0.4,3.1
		c0,1.8,0.3,3.5,1,5.1h15.7c2.5,0,4.5,2,4.5,4.5c0,0.8-0.2,1.5-0.6,2.2c1.1-0.7,2.1-1.5,3-2.5C45.4,28.9,42.4,26,38.8,25.9z"/>
</g>
<g id="工程" class="st0">
	<path class="st1" d="M22.5,19.8h-1.4l-1.5,4.1H22c0-0.2,0-0.4,0-0.6C22,22.1,22.2,20.9,22.5,19.8z"/>
	<path class="st1" d="M33.9,19.8H22.5c-0.3,1.1-0.5,2.3-0.5,3.5c0,0.2,0,0.4,0,0.6h13.4L33.9,19.8z"/>
	<path class="st1" d="M29.8,8.8c-0.3-1-1.2-1.7-2.2-1.7c-1.2,0-2.1,0.8-2.3,1.9l-2.4,6.3c0,0,0.7,0,1.7,0c0.1-0.1,0.2-0.3,0.3-0.4
		L29.8,8.8z"/>
	<path class="st1" d="M29.9,9c0-0.1,0-0.2-0.1-0.2L24.9,15c-0.1,0.1-0.2,0.2-0.3,0.4c2.7,0,7.6,0,7.6,0L29.9,9z"/>
	<path class="st1" d="M23,28.4h-5.1L15,36.1h-2.5c-0.3,0-0.5,0.2-0.5,0.5v2.9c0,0.3,0.2,0.5,0.5,0.5h29.8c0.3,0,0.5-0.2,0.5-0.5
		v-2.9c0.1-0.3-0.1-0.5-0.4-0.5h-1.8c-1.5,0.6-3.2,1-5,1C29.9,37.1,25,33.5,23,28.4z"/>
	<path class="st1" d="M37,28.4H23c2,5.1,6.9,8.7,12.6,8.7c1.8,0,3.4-0.4,5-1h-0.7L37,28.4z"/>
</g>
<g id="水質" class="st0">
	<g class="st2">
		<g>
			<g>
				<g>
					<g>
						<g>
							<g>
								<defs>
									<rect id="SVGID_1_" x="6.6" y="8.1" width="42" height="33.2"/>
								</defs>
								<clipPath id="SVGID_2_">
									<use xlink:href="#SVGID_1_"  style="overflow:visible;"/>
								</clipPath>
								<path class="st3" d="M47,12.8c0.7-0.7,0.7-1.9,0-2.6c-0.8-0.8-2-0.8-2.7,0l-1,1l2.4,2.9L47,12.8z"/>
							</g>
						</g>
						<g>
							<g>
								<defs>
									<rect id="SVGID_3_" x="6.6" y="8.1" width="42" height="33.2"/>
								</defs>
								<clipPath id="SVGID_4_">
									<use xlink:href="#SVGID_3_"  style="overflow:visible;"/>
								</clipPath>
								<path class="st4" d="M30.9,36.2H14.5v-21c0-0.5-0.2-1-0.6-1.4l-4-4C9.2,9,8,9,7.2,9.7c-0.8,0.8-0.8,2,0,2.7l3.5,3.5V38
									c0,1.1,0.9,1.9,1.9,1.9h29.5c1.1,0,1.9-0.9,1.9-1.9v-3.9c-2.3,1.8-5.2,3-8.4,3C33.9,37.1,32.3,36.8,30.9,36.2z"/>
							</g>
						</g>
						<g>
							<g>
								<defs>
									<rect id="SVGID_5_" x="6.6" y="8.1" width="42" height="33.2"/>
								</defs>
								<clipPath id="SVGID_6_">
									<use xlink:href="#SVGID_5_"  style="overflow:visible;"/>
								</clipPath>
								<path class="st5" d="M45.6,14.2l-2.4-2.9l-2.5,2.5c-0.4,0.4-0.6,0.9-0.6,1.4v21.1h-9.3c1.5,0.6,3.1,0.9,4.7,0.9
									c3.2,0,6.1-1.1,8.4-3V15.8L45.6,14.2z"/>
							</g>
						</g>
					</g>
				</g>
			</g>
		</g>
	</g>
	<path class="st6" d="M21.5,16.5c-2.5,0-4.5,1.7-5.6,3.5c1.6-1.5,3.6-2.5,5.5-2.4c0.6,0.1,1.1,0.2,1.7,0.4c0.2-0.4,0.4-0.8,0.6-1.2
		C23,16.6,22.2,16.4,21.5,16.5z"/>
	<path class="st6" d="M26.5,20.5c1.5,1.6,3.6,3.1,6.1,3.1s4.5-1.7,5.5-3.6c-1.5,1.5-3.5,2.6-5.5,2.4c-1.9-0.2-3.6-1.5-5-3
		c-0.8-0.8-1.7-1.5-2.7-2.1c-0.4-0.2-0.8-0.4-1.2-0.5c-0.2,0.4-0.4,0.8-0.6,1.2C24.3,18.6,25.5,19.4,26.5,20.5z"/>
	<path class="st6" d="M24.9,12.3c1,0,1.9-0.8,1.9-1.9s-0.8-2-1.9-2s-2,0.9-2,2C22.9,11.4,23.8,12.3,24.9,12.3z"/>
	<path class="st6" d="M30.1,11.9c-0.4,0-0.8,0.3-0.8,0.8c0,0.4,0.4,0.8,0.8,0.8s0.8-0.4,0.8-0.8C30.9,12.3,30.5,11.9,30.1,11.9z"/>
	<path class="st6" d="M33.2,8.1c-0.4,0-0.8,0.4-0.8,0.8c0,0.4,0.4,0.8,0.8,0.8c0.4,0,0.8-0.4,0.8-0.8C34,8.4,33.6,8.1,33.2,8.1z"/>
	<path class="st6" d="M33.2,27.9c-1.1,0-1.9,0.9-1.9,1.9s0.9,1.9,1.9,1.9s1.9-0.9,1.9-1.9S34.3,27.9,33.2,27.9z M33.2,30.9
		c-0.6,0-1.1-0.5-1.1-1.1s0.5-1.1,1.1-1.1s1.1,0.5,1.1,1.1S33.8,30.9,33.2,30.9z"/>
	<path class="st6" d="M21.6,28.5c-1.1,0-2.1-0.9-2.1-2.1s0.9-2.1,2.1-2.1c0.2,0,0.3,0,0.5,0c0-0.3,0-0.5,0-0.8c-0.1,0-0.2,0-0.3,0
		c-1.6,0-2.9,1.3-2.9,2.9s1.3,2.9,2.9,2.9c0.5,0,1-0.2,1.5-0.4c-0.1-0.3-0.2-0.5-0.3-0.8C22.5,28.3,22.1,28.5,21.6,28.5z"/>
	<path class="st6" d="M24.6,26.4c0-1.5-1.1-2.7-2.6-2.9c0,0.3,0,0.5,0,0.8c1,0.2,1.6,1,1.6,2.1c0,0.7-0.3,1.3-0.8,1.7
		c0.1,0.3,0.2,0.5,0.3,0.8C24,28.4,24.6,27.5,24.6,26.4z"/>
</g>
<path class="st7" d="M22.2,17.6c-7.8-2.6-11.9,1-15.7,4.1c-0.6,0.5-0.7,1.5-0.2,2.1c0.2,0.3,0.6,0.5,1,0.5s0.7-0.1,1-0.3
	c2.7-2.3,5.1-4.4,8.8-4.4c1.4,0,3,0.3,4.9,1c0-0.3,0-0.5,0-0.8C22,19.1,22.1,18.4,22.2,17.6z"/>
<path class="st7" d="M6.9,27.8c-0.6,0.5-0.7,1.5-0.2,2.1c0.2,0.3,0.6,0.5,1,0.5s0.7-0.1,1-0.3c2.6-2.3,5-4.4,8.8-4.4
	c1.8,0,4.1,0.5,6.8,1.8c-0.8-1.2-1.4-2.5-1.7-3.9C14.8,21.1,10.6,24.6,6.9,27.8z"/>
<path class="st7" d="M47.7,26.1c-0.1,0.1-0.1,0.3-0.2,0.4C47.6,26.3,47.7,26.2,47.7,26.1z"/>
<path class="st7" d="M46.5,30.2c-0.4,0-0.7,0.1-1,0.3c-4.3,3.7-8.1,6.9-17.7,1.5c-11.3-6.4-16.4-2-20.9,1.8
	c-0.6,0.5-0.7,1.5-0.2,2.1c0.2,0.3,0.6,0.5,1,0.5c0.4,0,0.7-0.1,1-0.3c2.6-2.3,5-4.4,8.8-4.4c2.3,0,5.2,0.8,8.9,2.9
	c3.9,2.2,7.2,3.2,10.3,3.2c4.7,0,7.8-2.7,10.6-5c0.6-0.5,0.7-1.5,0.2-2.1C47.3,30.4,46.9,30.2,46.5,30.2z"/>
<g>
	<path class="st7" d="M45.2,12.4L36.5,1.7c-0.4-0.5-1.4-0.5-1.8,0l-8.6,10.7c-1.8,2.2-2.6,4.8-2.6,7.5c0,6.7,5.4,12.2,12.1,12.2
		s12.1-5.4,12.1-12.2C47.8,17.1,46.9,14.4,45.2,12.4z M35.6,27.6c-4.2,0-7.7-3.4-7.7-7.7s3.4-7.7,7.7-7.7c4.2,0,7.7,3.4,7.7,7.7
		S39.9,27.6,35.6,27.6z"/>
</g>
<path class="st8" d="M39.3,21.8h-4.2c-0.5,0-1.1-0.5-1.1-1.1v-5.2c0-0.5,0.5-1.1,1.1-1.1s1.1,0.5,1.1,1.1v4.1h3.1
	c0.5,0,1.1,0.5,1.1,1.1C40.4,21.3,39.8,21.8,39.3,21.8z"/>
</svg>
