<?xml version="1.0" encoding="utf-8"?>
<!-- Generator: Adobe Illustrator 16.0.0, SVG Export Plug-In . SVG Version: 6.00 Build 0)  -->
<!DOCTYPE svg PUBLIC "-//W3C//DTD SVG 1.1//EN" "http://www.w3.org/Graphics/SVG/1.1/DTD/svg11.dtd">
<svg version="1.1" id="圖層_1" xmlns="http://www.w3.org/2000/svg" xmlns:xlink="http://www.w3.org/1999/xlink" x="0px" y="0px"
	 width="479.078px" height="448.535px" viewBox="0 0 479.078 448.535" enable-background="new 0 0 479.078 448.535"
	 xml:space="preserve">
<path display="none" opacity="0.4" fill="#D85885" enable-background="new    " d="M1175.774,41.933
	c-163.25,0-295.598,132.354-295.598,295.605c0,163.264,132.348,295.594,295.598,295.594c163.268,0,295.635-132.345,295.635-295.594
	C1471.391,174.28,1339.042,41.933,1175.774,41.933 M1252.89,172.303c29.416,0,53.353,23.933,53.353,53.35
	c0,9.804-7.956,17.759-17.765,17.759c-9.803,0-17.757-7.955-17.757-17.759c0-9.834-8.003-17.838-17.831-17.838
	c-9.844,0-17.847,8.004-17.847,17.838c0,9.804-7.955,17.759-17.756,17.759c-9.796,0-17.75-7.955-17.75-17.759
	C1199.545,196.248,1223.475,172.303,1252.89,172.303 M1098.69,172.303c29.416,0,53.354,23.933,53.354,53.35
	c0,9.804-7.954,17.759-17.757,17.759c-9.804,0-17.758-7.955-17.758-17.759c0-9.834-8.003-17.838-17.839-17.838
	s-17.846,8.004-17.846,17.838c0,9.804-7.953,17.759-17.759,17.759c-9.798,0-17.756-7.955-17.756-17.759
	C1045.336,196.248,1069.272,172.303,1098.69,172.303 M1175.798,516.167c-104.205,0-188.663-84.456-188.663-188.652h377.32
	C1364.456,431.711,1279.972,516.167,1175.798,516.167"/>
<path display="none" opacity="0.4" fill="#EC6A5E" enable-background="new    " d="M1175.774,41.921
	c-163.253,0-295.598,132.371-295.598,295.627c0,163.235,132.354,295.597,295.598,295.597c163.261,0,295.635-132.366,295.635-295.597
	C1471.391,174.28,1339.035,41.921,1175.774,41.921 M1247.172,209.356c19.63,0,35.538,15.883,35.538,35.537
	c0,19.605-15.908,35.539-35.538,35.539s-35.538-15.934-35.538-35.539C1211.634,225.239,1227.542,209.356,1247.172,209.356
	 M1099.193,209.356c19.63,0,35.538,15.883,35.538,35.537c0,19.605-15.908,35.539-35.539,35.539
	c-19.62,0-35.534-15.934-35.534-35.539C1063.658,225.239,1079.572,209.356,1099.193,209.356 M1329.768,451.869
	c-6.563,7.279-17.808,7.836-25.092,1.269c-35.243-31.834-80.83-49.394-128.366-49.394c-47.675,0-93.355,17.646-128.668,49.658
	c-3.396,3.084-7.669,4.604-11.923,4.604c-4.826,0-9.633-1.968-13.146-5.815c-6.603-7.267-6.035-18.515,1.229-25.093
	c41.846-37.938,96.012-58.864,152.52-58.864c56.349,0,110.396,20.81,152.179,58.539
	C1335.765,433.365,1336.319,444.586,1329.768,451.869"/>
<path opacity="0.25" fill="#7D4A82" enable-background="new    " d="M394.311,31c40.62,0,73.669,33.051,73.669,73.674
	c0,13.539-10.983,24.523-24.521,24.523c-13.54,0-24.524-10.984-24.524-24.523c0-13.584-11.052-24.637-24.623-24.637
	c-13.595,0-24.646,11.053-24.646,24.637c0,13.539-10.983,24.523-24.521,24.523c-13.526,0-24.512-10.984-24.512-24.523
	C320.641,64.069,353.688,31,394.311,31"/>
<path opacity="0.25" fill="#7D4A82" enable-background="new    " d="M181.365,31c40.62,0,73.681,33.051,73.681,73.674
	c0,13.539-10.983,24.523-24.522,24.523c-13.537,0-24.522-10.984-24.522-24.523c0-13.584-11.051-24.637-24.635-24.637
	s-24.638,11.053-24.638,24.637c0,13.539-10.982,24.523-24.523,24.523c-13.531,0-24.521-10.984-24.521-24.523
	C107.684,64.069,140.742,31,181.365,31"/>
<path opacity="0.25" fill="#7D4A82" enable-background="new    " d="M287.836,437.768c-143.903,0-260.537-91.968-260.537-205.426
	h521.065C548.366,345.802,431.697,437.768,287.836,437.768"/>
</svg>
