<?xml version="1.0" encoding="utf-8"?>
<!-- Generator: Adobe Illustrator 16.0.0, SVG Export Plug-In . SVG Version: 6.00 Build 0)  -->
<!DOCTYPE svg PUBLIC "-//W3C//DTD SVG 1.1//EN" "http://www.w3.org/Graphics/SVG/1.1/DTD/svg11.dtd">
<svg version="1.1" id="圖層_1" xmlns="http://www.w3.org/2000/svg" xmlns:xlink="http://www.w3.org/1999/xlink" x="0px" y="0px"
	 width="20px" height="20px" viewBox="0 0 20 20" enable-background="new 0 0 20 20" xml:space="preserve">
<g>
	<g>
		<g>
			<path fill="#FFFFFF" d="M12.969,7.097c-0.109-0.109-0.223-0.211-0.342-0.305L10.65,8.768c0.137,0.066,0.267,0.154,0.379,0.267
				c0.534,0.535,0.534,1.404,0,1.938l-3.683,3.684c-0.534,0.535-1.404,0.535-1.938,0c-0.534-0.534-0.534-1.403,0-1.938l0.272-0.272
				c-0.568-1.019-0.754-2.195-0.559-3.317L3.47,10.779c-1.603,1.604-1.603,4.211,0,5.814c1.604,1.604,4.212,1.604,5.815,0
				l3.683-3.683C14.572,11.309,14.572,8.7,12.969,7.097z"/>
		</g>
	</g>
	<g>
		<g>
			<path fill="#FFFFFF" d="M16.66,3.405c-1.604-1.603-4.213-1.603-5.814,0L7.163,7.088c-1.604,1.603-1.604,4.212,0,5.814
				c0.108,0.109,0.222,0.211,0.342,0.305l1.975-1.975c-0.137-0.066-0.266-0.155-0.377-0.267c-0.533-0.534-0.534-1.4-0.006-1.935
				l3.688-3.688c0.533-0.534,1.402-0.534,1.938,0c0.534,0.534,0.534,1.405,0,1.938l-0.273,0.273
				c0.569,1.018,0.756,2.193,0.561,3.316l1.651-1.651C18.263,7.616,18.263,5.008,16.66,3.405z"/>
		</g>
	</g>
</g>
</svg>
