<?xml version="1.0" encoding="utf-8"?>
<!-- Generator: Adobe Illustrator 16.0.0, SVG Export Plug-In . SVG Version: 6.00 Build 0)  -->
<!DOCTYPE svg PUBLIC "-//W3C//DTD SVG 1.1//EN" "http://www.w3.org/Graphics/SVG/1.1/DTD/svg11.dtd">
<svg version="1.1" id="圖層_1" xmlns="http://www.w3.org/2000/svg" xmlns:xlink="http://www.w3.org/1999/xlink" x="0px" y="0px"
	 width="40px" height="30px" viewBox="-2.5 0 40 30" enable-background="new -2.5 0 40 30" xml:space="preserve">
<g>
	<polygon fill="#F4F4F4" points="11.381,28.512 2,25.238 8.435,11.49 13.78,12.46 	"/>
	<polygon fill="#E3E5E8" points="11.381,28.512 21.291,25.221 19.42,11.49 13.78,12.46 	"/>
	<polygon fill="#F4F4F4" points="33.132,28.512 21.291,25.221 19.42,11.49 25.345,12.46 	"/>
	<g>
		<polygon fill="#84DBFF" points="23.71,13.908 19.647,13.162 20.961,22.84 28.56,24.873 		"/>
		<polygon fill="#84DBFF" points="9.319,13.38 4.556,23.811 11.685,26.02 13.504,14.132 		"/>
	</g>
	<polygon fill="#54C0EB" points="19.647,13.162 13.504,14.132 11.685,26.02 20.961,22.84 	"/>
	<path fill="#F1543F" d="M24.212,8.06c0,3.899-7.063,12.417-7.063,12.417s-7.061-8.518-7.061-12.417c0-3.897,3.163-7.06,7.063-7.06
		C21.048,1.001,24.212,4.154,24.212,8.06z"/>
	<circle fill="#FFFFFF" cx="17.144" cy="7.48" r="3.578"/>
</g>
</svg>
