<?xml version="1.0" encoding="utf-8"?>
<!-- Generator: Adobe Illustrator 16.0.0, SVG Export Plug-In . SVG Version: 6.00 Build 0)  -->
<!DOCTYPE svg PUBLIC "-//W3C//DTD SVG 1.1//EN" "http://www.w3.org/Graphics/SVG/1.1/DTD/svg11.dtd">
<svg version="1.1" id="圖層_1" xmlns="http://www.w3.org/2000/svg" xmlns:xlink="http://www.w3.org/1999/xlink" x="0px" y="0px"
	 width="30px" height="28px" viewBox="0 0 30 28" enable-background="new 0 0 30 28" xml:space="preserve">
<g>
	<path fill="#5E5E5E" d="M11.19,23.709c-0.136,0-0.272,0-0.408,0c-0.233-0.129-0.458-0.273-0.7-0.383
		c-1.261-0.559-2.526-1.105-3.791-1.658c0-4.945-0.001-9.89,0.006-14.835c0-0.181,0.085-0.361,0.13-0.541
		c1.443,0.636,2.883,1.277,4.33,1.901c0.125,0.054,0.324,0.045,0.446-0.017c1.226-0.618,2.441-1.254,3.661-1.884
		c0.091,0,0.181,0,0.271,0c1.442,0.636,2.883,1.276,4.33,1.901c0.125,0.054,0.323,0.045,0.446-0.016
		c1.225-0.619,2.442-1.254,3.661-1.885c0.045,0.181,0.13,0.362,0.13,0.544c0.007,4.943,0.006,9.889,0.006,14.832
		c-1.315,0.68-2.631,1.359-3.946,2.041c-0.091,0-0.182,0-0.271,0c-1.432-0.639-2.863-1.281-4.298-1.914
		c-0.093-0.041-0.236-0.057-0.319-0.014C13.642,22.416,12.417,23.063,11.19,23.709z M7.673,14.15
		c0.836,0.278,1.581,0.473,2.28,0.773c0.694,0.299,1.366,0.666,2,1.077c0.285,0.186,0.473,0.537,0.67,0.834
		c0.2,0.303,0.323,0.656,0.541,0.941c0.347,0.453,0.771,0.729,1.408,0.549c1.194-0.334,2.579,0.143,3.3,1.205
		c0.371,0.551,0.614,1.205,0.832,1.84c0.264,0.766,0.682,0.98,1.426,0.613c0.527-0.26,1.056-0.523,1.582-0.787
		c0.862-0.435,0.935-1.08,0.196-1.701c-2.049-1.723-4.135-3.402-6.115-5.197c-0.836-0.756-1.64-1.057-2.739-0.85
		c-1.43,0.269-2.824,0.159-4.095-0.686c-0.376-0.25-0.827-0.385-1.287-0.592C7.673,12.935,7.673,13.585,7.673,14.15z M7.67,8.346
		c-0.013,0.291,0,0.493-0.035,0.688c-0.124,0.67,0.164,1.017,0.791,1.257c0.802,0.306,1.555,0.736,2.342,1.084
		c0.236,0.105,0.518,0.169,0.774,0.159c0.814-0.033,1.633-0.064,2.438-0.181c0.942-0.137,1.72,0.049,2.366,0.791
		c0.324,0.372,0.758,0.646,1.117,0.991c0.268,0.257,0.496,0.299,0.834,0.103c1.217-0.701,2.455-1.367,3.678-2.058
		c0.146-0.082,0.352-0.229,0.356-0.354c0.033-0.75,0.017-1.503,0.017-2.359c-0.793,0.396-1.441,0.768-2.131,1.043
		c-0.296,0.118-0.711,0.138-1.002,0.024c-1.244-0.485-2.453-1.057-3.697-1.547c-0.271-0.107-0.667-0.096-0.932,0.023
		c-1.011,0.456-2.004,0.956-2.98,1.483c-0.425,0.23-0.781,0.223-1.209,0.025C9.52,9.111,8.621,8.752,7.67,8.346z M22.291,17.232
		c0-1.907,0-3.646,0-5.459c-1.323,0.736-2.561,1.424-3.902,2.171C19.719,15.066,20.967,16.116,22.291,17.232z"/>
	<path fill="#D1FF96" d="M7.673,14.15c0-0.564,0-1.215,0-1.981c0.459,0.207,0.911,0.342,1.287,0.592
		c1.271,0.845,2.665,0.955,4.095,0.686c1.099-0.207,1.903,0.094,2.739,0.85c1.981,1.794,4.067,3.475,6.115,5.197
		c0.737,0.621,0.666,1.268-0.196,1.701c-0.525,0.264-1.055,0.527-1.582,0.787c-0.744,0.367-1.162,0.151-1.426-0.613
		c-0.219-0.635-0.461-1.289-0.832-1.84c-0.721-1.063-2.105-1.539-3.3-1.205c-0.636,0.18-1.061-0.096-1.408-0.549
		c-0.218-0.285-0.341-0.64-0.541-0.941c-0.197-0.297-0.385-0.648-0.67-0.834c-0.634-0.411-1.307-0.778-2-1.077
		C9.253,14.623,8.509,14.428,7.673,14.15z"/>
	<path fill="#90D93A" d="M7.67,8.346c0.95,0.406,1.85,0.765,2.727,1.172c0.428,0.198,0.784,0.206,1.209-0.025
		c0.976-0.527,1.969-1.027,2.98-1.483c0.265-0.119,0.661-0.13,0.932-0.023c1.244,0.49,2.453,1.062,3.697,1.547
		c0.291,0.113,0.706,0.093,1.002-0.024c0.688-0.275,1.338-0.646,2.131-1.043c0,0.856,0.018,1.609-0.017,2.359
		c-0.006,0.125-0.212,0.272-0.356,0.354c-1.223,0.691-2.461,1.357-3.678,2.058c-0.338,0.196-0.566,0.154-0.834-0.103
		c-0.359-0.345-0.793-0.619-1.117-0.991c-0.646-0.742-1.424-0.927-2.366-0.791c-0.805,0.116-1.624,0.148-2.438,0.181
		c-0.256,0.01-0.538-0.053-0.774-0.159c-0.787-0.348-1.54-0.778-2.342-1.084c-0.627-0.24-0.915-0.586-0.791-1.257
		C7.671,8.839,7.657,8.637,7.67,8.346z"/>
	<path fill="#90D93A" d="M22.291,17.232c-1.324-1.116-2.572-2.167-3.902-3.289c1.342-0.747,2.579-1.435,3.902-2.171
		C22.291,13.587,22.291,15.325,22.291,17.232z"/>
</g>
</svg>
