<?xml version="1.0" encoding="utf-8"?>
<!-- Generator: Adobe Illustrator 16.0.0, SVG Export Plug-In . SVG Version: 6.00 Build 0)  -->
<!DOCTYPE svg PUBLIC "-//W3C//DTD SVG 1.1//EN" "http://www.w3.org/Graphics/SVG/1.1/DTD/svg11.dtd">
<svg version="1.1" id="圖層_1" xmlns="http://www.w3.org/2000/svg" xmlns:xlink="http://www.w3.org/1999/xlink" x="0px" y="0px"
	 width="30px" height="28px" viewBox="0 0 30 28" enable-background="new 0 0 30 28" xml:space="preserve">
<g>
	<path fill="#5E5E5E" d="M8.056,15.453c-0.973,0.712-1.778,1.224-2.306,1.542c0.338,1.584,1.088,3.092,2.245,4.362l2.799-2.799
		C9.706,17.497,8.798,16.436,8.056,15.453L8.056,15.453z"/>
	<path fill="#5E5E5E" d="M11.435,19.167l-2.818,2.815c1.209,1.107,2.635,1.843,4.136,2.205c0.534-0.928,1.11-1.807,1.712-2.631
		C13.338,20.796,12.329,19.986,11.435,19.167L11.435,19.167z"/>
	<path fill="#5E5E5E" d="M15.747,21.343c1.151,0.718,2.423,1.382,3.821,1.951c0.641-0.354,1.244-0.787,1.803-1.299l-3.286-3.287
		C17.296,19.505,16.504,20.382,15.747,21.343L15.747,21.343z"/>
	<path fill="#5E5E5E" d="M13.668,24.366c1.624,0.229,3.297,0.045,4.842-0.566c-1.189-0.528-2.291-1.12-3.302-1.756
		C14.667,22.775,14.149,23.55,13.668,24.366L13.668,24.366z"/>
	<path fill="#5E5E5E" d="M18.514,10.842l2.846-2.849c-1.273-1.155-2.78-1.906-4.367-2.245c-0.484,0.839-1.006,1.634-1.551,2.385
		C16.411,8.869,17.462,9.769,18.514,10.842L18.514,10.842z"/>
	<path fill="#5E5E5E" d="M5.957,12.202c-0.385,1.248-0.505,2.558-0.362,3.846c0.495-0.313,1.159-0.749,1.936-1.32
		C6.83,13.737,6.314,12.861,5.957,12.202L5.957,12.202z"/>
	<path fill="#5E5E5E" d="M16.061,5.598c-1.323-0.149-2.666-0.018-3.942,0.388c0.675,0.363,1.579,0.897,2.608,1.625
		C15.19,6.973,15.639,6.3,16.061,5.598L16.061,5.598z"/>
	<path fill="#5E5E5E" d="M11.105,11.729l-3.1-3.099c-0.685,0.751-1.229,1.585-1.628,2.471c0.301,0.617,0.899,1.74,1.855,3.099
		C9.115,13.517,10.101,12.693,11.105,11.729L11.105,11.729z"/>
	<path fill="#5E5E5E" d="M14.198,8.315c-1.399-0.99-2.557-1.602-3.174-1.901C10.167,6.811,9.359,7.34,8.631,8.005l3.103,3.104
		C12.565,10.271,13.401,9.337,14.198,8.315L14.198,8.315z"/>
	<path fill="#5E5E5E" d="M18.079,17.454c0.955-0.918,1.892-1.71,2.747-2.378c-0.742-1.106-1.53-2.093-2.331-2.971l-2.884,2.882
		L18.079,17.454z"/>
	<path fill="#5E5E5E" d="M11.415,17.938l2.95-2.948l-2.626-2.626c-1.044,1.003-2.063,1.858-2.98,2.563
		C9.479,15.875,10.359,16.904,11.415,17.938L11.415,17.938z"/>
	<path fill="#2875CC" stroke="#2875CC" stroke-width="0.5" stroke-miterlimit="10" d="M12.369,11.743l2.618,2.621l2.902-2.901
		c-1.019-1.04-2.033-1.912-2.972-2.624C14.093,9.906,13.227,10.874,12.369,11.743L12.369,11.743z"/>
	<path fill="#5E5E5E" d="M19.117,11.483c0.826,0.903,1.644,1.921,2.41,3.057c1.164-0.862,2.109-1.456,2.664-1.785
		c-0.364-1.502-1.102-2.929-2.209-4.138L19.117,11.483z"/>
	<path fill="#5E5E5E" d="M14.996,20.854c0.797-1.018,1.628-1.944,2.453-2.778l-2.462-2.464l-2.931,2.931
		C12.926,19.337,13.905,20.118,14.996,20.854L14.996,20.854z"/>
	<path fill="#5E5E5E" d="M18.716,18.091l3.281,3.281c0.489-0.539,0.911-1.121,1.257-1.733c-0.564-1.392-1.225-2.656-1.938-3.807
		C20.505,16.473,19.619,17.225,18.716,18.091L18.716,18.091z"/>
	<path fill="#5E5E5E" d="M23.768,18.593c0.637-1.561,0.832-3.258,0.602-4.908c-0.555,0.342-1.376,0.88-2.352,1.609
		C22.65,16.302,23.238,17.404,23.768,18.593L23.768,18.593z"/>
</g>
</svg>
