<?xml version="1.0" encoding="utf-8"?>
<!-- Generator: Adobe Illustrator 16.0.0, SVG Export Plug-In . SVG Version: 6.00 Build 0)  -->
<!DOCTYPE svg PUBLIC "-//W3C//DTD SVG 1.1//EN" "http://www.w3.org/Graphics/SVG/1.1/DTD/svg11.dtd">
<svg version="1.1" id="圖層_1" xmlns="http://www.w3.org/2000/svg" xmlns:xlink="http://www.w3.org/1999/xlink" x="0px" y="0px"
	 width="30px" height="28px" viewBox="0 0 30 28" enable-background="new 0 0 30 28" xml:space="preserve">
<g>
	<g>
		<path fill="#8164E1" d="M13.151,11.155c-0.562,0-1.012,0.454-1.012,1.008v2.157l3.164-3.165H13.151z"/>
		<polygon fill="#8164E1" points="16.654,11.155 12.14,15.67 12.14,18.607 19.591,11.155 		"/>
		<path fill="#8164E1" d="M24.266,12.163c0-0.012-0.008-0.023-0.008-0.035L12.666,23.719c0.146,0.082,0.305,0.143,0.485,0.143h2.312
			l8.803-8.802V12.163z"/>
		<path fill="#8164E1" d="M21.102,23.859h2.155c0.558,0,1.009-0.452,1.009-1.01v-2.152L21.102,23.859z"/>
		<polygon fill="#8164E1" points="24.266,16.409 16.813,23.859 19.75,23.859 24.266,19.346 		"/>
		<path fill="#8164E1" d="M23.257,11.155h-2.313l-8.803,8.803v2.892c0,0.015,0.007,0.025,0.008,0.039L23.74,11.297
			C23.593,11.215,23.436,11.155,23.257,11.155z"/>
	</g>
	<path fill="#5E5E5E" d="M18.195,7.471c0-0.557-0.453-1.011-1.01-1.011H7.079c-0.561,0-1.011,0.454-1.011,1.011v10.685
		c0,0.561,0.45,1.014,1.011,1.014h3.583v-8.151c0-0.557,0.454-1.014,1.01-1.014h6.523V7.471z"/>
</g>
</svg>
