<?xml version="1.0" encoding="utf-8"?>
<!-- Generator: Adobe Illustrator 16.0.0, SVG Export Plug-In . SVG Version: 6.00 Build 0)  -->
<!DOCTYPE svg PUBLIC "-//W3C//DTD SVG 1.1//EN" "http://www.w3.org/Graphics/SVG/1.1/DTD/svg11.dtd">
<svg version="1.1" id="圖層_1" xmlns="http://www.w3.org/2000/svg" xmlns:xlink="http://www.w3.org/1999/xlink" x="0px" y="0px"
	 width="30px" height="30px" viewBox="0 0 30 30" enable-background="new 0 0 30 30" xml:space="preserve">
<linearGradient id="SVGID_1_" gradientUnits="userSpaceOnUse" x1="40.2861" y1="3.9243" x2="40.2861" y2="24.7329" gradientTransform="matrix(1 0 0 -1 -24.0151 29.6992)">
	<stop  offset="0" style="stop-color:#3273BA"/>
	<stop  offset="1" style="stop-color:#2EB4EA"/>
</linearGradient>
<path fill="url(#SVGID_1_)" d="M25.375,12.77V4.966H7.167c-1.437,0-2.602,1.164-2.602,2.602v15.606c0,1.438,1.165,2.602,2.602,2.602
	h18.208v-7.803l2.602-2.603L25.375,12.77z"/>
<g>
	<path fill="#FFFFFF" d="M13.993,14.449c0.296,0.201,0.745,0.326,1.253,0.326c0.509,0,0.958-0.125,1.251-0.326
		c-0.201,0.311-0.686,0.53-1.251,0.53S14.196,14.763,13.993,14.449L13.993,14.449z"/>
	<circle fill="#FFFFFF" cx="17.011" cy="12.078" r="0.501"/>
	<path fill="#FFFFFF" d="M13.48,11.577c-0.275,0-0.498,0.223-0.498,0.501c0,0.275,0.223,0.501,0.498,0.501
		c0.279,0,0.502-0.226,0.502-0.501C13.982,11.8,13.759,11.577,13.48,11.577z"/>
	<path fill="#FFFFFF" d="M21.165,18.819c-0.12-1.823-1.05-3.421-2.45-4.43c0.249-0.33,0.455-0.698,0.605-1.098
		c0.481-0.021,0.867-0.53,0.867-1.154c0-0.481-0.235-0.89-0.578-1.058c0.094-0.838,0.085-2.206-1.138-3.121
		C16.786,6.7,15.278,6.271,13.721,7.14c0.012-0.217,0.049-0.482,0.14-0.808c0,0-0.531,0.254-0.636,0.903c0,0-0.442-0.22-0.785,0.223
		c0,0,0.17,0.015,0.382,0.084c-0.457,0.203-0.906,0.522-1.248,0.933c-0.67,0.797-0.757,1.849-0.699,2.612
		c-0.339,0.171-0.567,0.577-0.567,1.052c0,0.624,0.388,1.13,0.87,1.153c0.147,0.4,0.353,0.766,0.603,1.099
		c-1.398,1.005-2.331,2.604-2.45,4.43h4.31V17.86v-2.046c0.502,0.199,1.047,0.312,1.609,0.312c0.679,0,1.333-0.159,1.917-0.447
		v3.143h3.999V18.819z M15.249,15.81c-0.565,0-1.11-0.117-1.606-0.332c-0.168-0.072-0.333-0.156-0.486-0.251
		c-0.432-0.264-0.812-0.605-1.122-1.01c-0.261-0.344-0.466-0.725-0.611-1.145l-0.041-0.123l-0.128,0.018
		c-0.017,0.003-0.028,0.004-0.037,0.012c-0.006,0-0.014,0.002-0.02,0.002c-0.323-0.005-0.58-0.383-0.58-0.843
		c0-0.075,0.008-0.147,0.02-0.218c0.015-0.06,0.032-0.115,0.053-0.167c0.002-0.01,0.006-0.018,0.008-0.027
		c0.022-0.055,0.051-0.106,0.084-0.153c0.002-0.002,0.006-0.008,0.01-0.015c0.028-0.033,0.06-0.066,0.092-0.098
		c0.008-0.009,0.017-0.017,0.029-0.029c0.054,0.395,0.136,0.652,0.156,0.646c-0.009-0.012-0.003-0.064,0.017-0.145
		c0.117-0.454,0.754-1.843,2.493-2.246c0.041-0.012,0.078-0.022,0.116-0.034c0.923,0.635,1.391,0.484,2.279,0.322
		c0.255-0.048,0.485-0.068,0.704-0.076c0.53-0.017,0.956,0.069,1.302,0.221c0.628,0.386,1.015,0.904,1.226,1.313
		c0.126,0.339,0.146,0.612,0.123,0.647c0.012,0.002,0.041-0.056,0.079-0.146c0.021,0.081,0.026,0.137,0.017,0.146
		c0.018,0.005,0.101-0.251,0.156-0.647c0.012,0.013,0.019,0.021,0.028,0.029c0.036,0.033,0.065,0.064,0.093,0.098
		c0.004,0.006,0.004,0.013,0.007,0.015c0.033,0.047,0.063,0.099,0.087,0.153c0.002,0.009,0.005,0.017,0.005,0.022
		c0.023,0.057,0.041,0.112,0.055,0.172c0.012,0.069,0.021,0.142,0.021,0.217c0,0.461-0.261,0.837-0.579,0.843
		c-0.007,0-0.017-0.002-0.02-0.002c-0.012-0.006-0.021-0.01-0.038-0.011h-0.004l-0.125-0.019l-0.042,0.123
		c-0.139,0.42-0.348,0.803-0.606,1.146c-0.311,0.405-0.69,0.747-1.121,1.011c-0.055,0.037-0.115,0.064-0.174,0.096
		C16.589,15.634,15.935,15.81,15.249,15.81z"/>
</g>
<g>
	<path fill="#FFFFFF" d="M8.698,20.268h0.49v0.95c0,0.047,0,0.093,0,0.139c0.125,0.414,0.275,0.771,0.449,1.073
		c0.253,0.455,0.665,0.855,1.236,1.204l-0.429,0.408c-0.435-0.305-0.77-0.633-1.004-0.983c-0.163-0.231-0.306-0.511-0.428-0.837
		c-0.093,0.237-0.215,0.464-0.367,0.682c-0.335,0.463-0.756,0.842-1.265,1.139l-0.282-0.445c0.555-0.334,0.966-0.708,1.232-1.122
		c0.245-0.405,0.367-0.824,0.367-1.257V20.268z"/>
	<path fill="#FFFFFF" d="M11.473,20.549h3.367v0.474h-1.44v2.351h1.604v0.473H11.31v-0.473h1.583v-2.351h-1.42V20.549z"/>
	<path fill="#FFFFFF" d="M15.504,20.969h0.445v-0.701h0.457v0.701h0.375v0.461h-0.375v0.539c0.092-0.03,0.184-0.063,0.273-0.102
		l0.07,0.396c-0.111,0.057-0.227,0.113-0.344,0.167v1.004c0,0.229-0.033,0.384-0.098,0.466c-0.076,0.095-0.213,0.143-0.408,0.143
		c-0.117,0-0.227-0.011-0.326-0.033l-0.085-0.473c0.115,0.029,0.228,0.045,0.343,0.045c0.049,0,0.08-0.017,0.094-0.049
		c0.016-0.044,0.023-0.113,0.023-0.209v-0.701c-0.109,0.038-0.219,0.074-0.33,0.11l-0.164-0.486c0.171-0.043,0.335-0.087,0.494-0.13
		V21.43h-0.445V20.969z M16.826,22.148h0.883v-0.359h0.477v0.359h0.975v0.44h-0.701c0.215,0.321,0.473,0.582,0.771,0.784
		l-0.266,0.457c-0.166-0.15-0.332-0.331-0.502-0.543c-0.096-0.125-0.188-0.259-0.277-0.4v1.155h-0.477v-1.098
		c-0.045,0.073-0.094,0.148-0.148,0.225c-0.191,0.264-0.416,0.483-0.668,0.661l-0.307-0.38c0.242-0.16,0.449-0.342,0.621-0.543
		c0.094-0.111,0.174-0.218,0.236-0.318h-0.617V22.148z M18.949,20.268l0.211,0.412c-0.654,0.114-1.393,0.205-2.215,0.273
		l-0.164-0.438C17.568,20.459,18.291,20.376,18.949,20.268z M17.271,21.022c0.115,0.204,0.201,0.431,0.262,0.681l-0.441,0.147
		c-0.051-0.256-0.135-0.49-0.248-0.702L17.271,21.022z M18.023,20.924c0.111,0.188,0.197,0.395,0.256,0.62l-0.436,0.144
		c-0.055-0.234-0.139-0.445-0.25-0.633L18.023,20.924z M18.74,20.822l0.457,0.146c-0.125,0.387-0.268,0.709-0.428,0.968
		l-0.438-0.233C18.51,21.41,18.645,21.116,18.74,20.822z"/>
	<path fill="#FFFFFF" d="M19.668,20.937h0.428v-0.669h0.436v0.669h0.381v0.424h-0.381v0.249c0.184,0.177,0.342,0.352,0.475,0.522
		l-0.295,0.404c-0.057-0.111-0.115-0.217-0.18-0.314v1.82h-0.436V22.52c-0.068,0.199-0.145,0.384-0.229,0.556l-0.277-0.343
		c0.096-0.169,0.195-0.406,0.301-0.711c0.074-0.204,0.139-0.424,0.193-0.661h-0.416V20.937z M20.814,22.817h0.994v0.294
		c-0.094,0.239-0.215,0.421-0.357,0.543c-0.172,0.152-0.375,0.259-0.609,0.318l-0.191-0.376c0.201-0.043,0.365-0.115,0.49-0.216
		c0.072-0.055,0.135-0.117,0.184-0.188h-0.51V22.817z M21.887,20.268c0.057,0.098,0.104,0.202,0.139,0.313h0.291
		c0.059-0.104,0.113-0.208,0.162-0.313l0.457,0.134c-0.037,0.065-0.074,0.126-0.109,0.18h0.498v0.388h-0.91v0.118h0.766v0.376
		h-0.766v0.114h0.994v0.392h-1.215c0.182,0.03,0.363,0.068,0.547,0.114l-0.135,0.343c-0.068-0.019-0.137-0.037-0.209-0.053v0.399
		c0.033,0.052,0.068,0.101,0.107,0.147c0.168-0.158,0.313-0.329,0.432-0.515l0.389,0.2c-0.156,0.253-0.32,0.461-0.494,0.624
		c0.186,0.128,0.389,0.23,0.611,0.307l-0.195,0.42c-0.281-0.09-0.531-0.229-0.752-0.42c-0.035-0.03-0.066-0.063-0.098-0.099v0.159
		c0,0.297-0.141,0.445-0.424,0.445c-0.109,0-0.229-0.006-0.359-0.017l-0.082-0.412c0.129,0.035,0.238,0.053,0.328,0.053
		c0.076,0,0.113-0.043,0.113-0.13v-0.82h-0.756v-0.388h0.947c-0.215-0.041-0.432-0.075-0.648-0.103l0.082-0.257h-0.67v-0.392h0.992
		v-0.114h-0.734v-0.376h0.734v-0.118h-0.898v-0.388H21.5c-0.025-0.06-0.055-0.115-0.086-0.167L21.887,20.268z"/>
</g>
</svg>
