<?xml version="1.0" encoding="utf-8"?>
<!-- Generator: Adobe Illustrator 16.0.0, SVG Export Plug-In . SVG Version: 6.00 Build 0)  -->
<!DOCTYPE svg PUBLIC "-//W3C//DTD SVG 1.1//EN" "http://www.w3.org/Graphics/SVG/1.1/DTD/svg11.dtd">
<svg version="1.1" id="圖層_1" xmlns="http://www.w3.org/2000/svg" xmlns:xlink="http://www.w3.org/1999/xlink" x="0px" y="0px"
	 width="30.708px" height="24.904px" viewBox="0 0 30.708 24.904" enable-background="new 0 0 30.708 24.904" xml:space="preserve">
<g display="none">
	<path display="inline" fill="#DA7065" d="M23.894,15.773c0.15-0.096,0.31-0.137,0.565-0.137c0.25,0,0.479,0.079,0.668,0.213h1.293
		c-0.356-0.728-1.101-1.23-1.965-1.23c-0.448,0-0.865,0.142-1.21,0.377h-0.004c-0.146,0.103-0.282,0.213-0.401,0.345l0.009,0.006
		c-0.157,0.14-0.344,0.312-0.544,0.503h1.503C23.84,15.822,23.867,15.796,23.894,15.773z"/>
	<path display="inline" fill="#DA7065" d="M10.19,14.899c0.859-0.194,1.773-0.304,2.726-0.304c2.023,0,3.879,0.465,5.355,1.254
		h1.837c-2.047-1.583-4.46-2.234-7.192-2.234c-0.973,0-1.911,0.103-2.798,0.295c-0.028-0.32-0.045-0.517-0.045-0.517H4.287
		c0,0-0.119,0.992-0.195,2.455h6.157C10.23,15.514,10.21,15.193,10.19,14.899z"/>
	<path display="inline" fill="#FFFFFF" d="M4.287,22.854h5.786c0,0,0.048-0.553,0.104-1.34c0.862-0.145,1.742,0.084,2.763,0.719
		c1.291,0.842,2.881,1.342,4.605,1.342c1.747,0,3.242-0.514,4.492-1.379h0.004c0.01-0.01,0.027-0.021,0.046-0.035
		c0.354-0.252,0.689-0.525,0.999-0.828c0.244-0.248,0.575-0.57,1.073-1.055c1.666-1.639,1.874-1.965,1.874-1.965s-0.004,0-0.008,0
		c0.383-0.391,0.617-0.92,0.617-1.507c0-0.343-0.082-0.668-0.223-0.957h-1.293c0.304,0.213,0.502,0.563,0.502,0.96
		c0,0.321-0.145,0.629-0.313,0.854c-0.294,0.291-1.533,1.564-1.866,1.895c-0.867,0.852-1.273,1.248-1.464,1.469l-0.004-0.004
		c-0.131,0.121-0.271,0.227-0.412,0.332c-1.119,0.76-2.514,1.209-4.024,1.209c-1.524,0-2.928-0.457-4.054-1.227h-0.007
		c-0.973-0.594-2.111-0.957-3.239-0.846c0.045-0.779,0.08-1.631,0.08-2.365c0-0.707-0.033-1.522-0.076-2.276H4.092
		c-0.035,0.675-0.06,1.449-0.06,2.276C4.032,20.735,4.287,22.854,4.287,22.854z"/>
	<path display="inline" fill="#FFFFFF" d="M19.979,17.065c0.183,0.206,0.299,0.48,0.299,0.781c0,0.645-0.523,1.168-1.17,1.168
		c-0.023,0-0.047-0.006-0.071-0.006l-0.004,0.014c-0.603-0.021-1.545-0.273-3.14-0.885l-0.362,0.949
		c1.683,0.641,2.793,0.934,3.581,0.949V20.03c0.984-0.004,1.819-0.66,2.087-1.557v0.004c0.343-0.566,1.614-1.747,2.344-2.392
		c0.006-0.007,0.013-0.011,0.017-0.018c0.095-0.085,0.178-0.157,0.249-0.219h-1.503c-0.385,0.365-0.815,0.8-1.162,1.209
		c-0.113-0.293-0.285-0.559-0.506-0.773c-0.175-0.152-0.351-0.298-0.529-0.436h-1.837C18.919,16.196,19.496,16.603,19.979,17.065z"
		/>
	<g display="inline">
		<path fill="#DA7065" d="M19.244,14.3l-0.02-0.001v-0.307h0.021c0.396,0,0.792-0.036,1.177-0.109l0.058,0.303
			C20.075,14.262,19.659,14.3,19.244,14.3z M19.017,14.296c-0.415-0.014-0.829-0.067-1.229-0.156l0.065-0.3
			c0.385,0.085,0.779,0.135,1.176,0.15L19.017,14.296z M20.683,14.145l-0.065-0.301c0.385-0.084,0.766-0.205,1.128-0.36l0.121,0.283
			C21.485,13.929,21.087,14.056,20.683,14.145z M17.585,14.091c-0.401-0.102-0.794-0.243-1.169-0.418l0.13-0.279
			c0.358,0.168,0.733,0.303,1.116,0.399L17.585,14.091z M22.055,13.681l-0.129-0.279c0.357-0.165,0.702-0.366,1.023-0.595
			l0.179,0.249C22.791,13.297,22.43,13.508,22.055,13.681z M16.23,13.583c-0.369-0.188-0.723-0.41-1.051-0.662l0.187-0.244
			c0.314,0.24,0.651,0.452,1.002,0.63L16.23,13.583z M23.294,12.934l-0.186-0.244c0.313-0.24,0.606-0.509,0.872-0.802l0.229,0.207
			C23.931,12.4,23.624,12.683,23.294,12.934z M15.018,12.792c-0.32-0.261-0.618-0.554-0.885-0.869l0.235-0.199
			c0.255,0.301,0.54,0.581,0.845,0.831L15.018,12.792z M24.346,11.938l-0.234-0.198c0.256-0.301,0.484-0.627,0.681-0.969
			l0.268,0.153C24.854,11.282,24.613,11.624,24.346,11.938z M14,11.762c-0.257-0.324-0.486-0.673-0.679-1.038l0.272-0.144
			c0.184,0.349,0.402,0.683,0.648,0.992L14,11.762z M25.159,10.743l-0.272-0.145c0.187-0.349,0.342-0.716,0.458-1.092l0.294,0.091
			C25.516,9.992,25.354,10.377,25.159,10.743z M13.228,10.539c-0.182-0.372-0.33-0.763-0.439-1.162l0.296-0.082
			c0.104,0.38,0.246,0.753,0.419,1.108L13.228,10.539z M25.698,9.4L25.4,9.317c0.107-0.379,0.177-0.771,0.211-1.165l0.307,0.027
			C25.883,8.59,25.81,9.002,25.698,9.4z M12.736,9.178c-0.097-0.401-0.157-0.814-0.178-1.229l0.307-0.015
			c0.021,0.395,0.078,0.79,0.17,1.171L12.736,9.178z M25.933,7.971l-0.308-0.017c0.006-0.117,0.01-0.235,0.01-0.353
			c0-0.278-0.018-0.558-0.054-0.831l0.306-0.04c0.037,0.286,0.056,0.579,0.056,0.87C25.942,7.725,25.938,7.849,25.933,7.971z
			 M12.55,7.742c0-0.046-0.001-0.093-0.001-0.14c0-0.368,0.03-0.737,0.089-1.097l0.303,0.05c-0.056,0.344-0.085,0.695-0.085,1.047
			c0,0.045,0.001,0.09,0.002,0.135L12.55,7.742z M25.554,6.576c-0.063-0.389-0.165-0.776-0.3-1.146l0.29-0.104
			c0.141,0.389,0.245,0.792,0.313,1.201L25.554,6.576z M12.978,6.36L12.676,6.3c0.08-0.405,0.199-0.805,0.353-1.189l0.286,0.114
			C13.167,5.592,13.054,5.973,12.978,6.36z M25.185,5.245c-0.146-0.365-0.327-0.72-0.539-1.054l0.26-0.165
			c0.222,0.35,0.412,0.722,0.564,1.105L25.185,5.245z M13.391,5.044L13.11,4.92c0.166-0.378,0.368-0.743,0.602-1.085l0.254,0.173
			C13.743,4.335,13.549,4.684,13.391,5.044z M24.536,4.025c-0.221-0.326-0.475-0.634-0.752-0.914l0.219-0.217
			c0.291,0.294,0.555,0.617,0.789,0.958L24.536,4.025z M14.079,3.847l-0.248-0.181c0.244-0.334,0.519-0.647,0.82-0.931l0.211,0.223
			C14.575,3.229,14.312,3.528,14.079,3.847z M23.644,2.972c-0.288-0.272-0.601-0.519-0.931-0.733L22.88,1.98
			c0.347,0.225,0.675,0.484,0.974,0.768L23.644,2.972z M15.008,2.825l-0.204-0.23c0.31-0.275,0.646-0.522,1-0.735l0.158,0.264
			C15.625,2.326,15.304,2.563,15.008,2.825z M22.545,2.134c-0.337-0.205-0.696-0.378-1.065-0.517l0.109-0.288
			c0.387,0.145,0.762,0.327,1.114,0.542L22.545,2.134z M16.134,2.023l-0.15-0.268c0.361-0.203,0.744-0.372,1.135-0.503l0.098,0.292
			C16.843,1.669,16.479,1.831,16.134,2.023z M21.293,1.551c-0.373-0.126-0.76-0.219-1.15-0.274l0.042-0.304
			c0.41,0.058,0.817,0.154,1.208,0.287L21.293,1.551z M17.406,1.484l-0.09-0.294c0.395-0.12,0.806-0.202,1.216-0.246l0.034,0.306
			C18.172,1.292,17.783,1.37,17.406,1.484z M19.946,1.252c-0.391-0.043-0.793-0.05-1.184-0.02l-0.024-0.306
			c0.409-0.031,0.831-0.024,1.242,0.021L19.946,1.252z"/>
		<path fill="#DA7065" d="M19.255,13.158h-0.011c-0.412,0-0.824-0.047-1.226-0.137l0.067-0.3c0.379,0.085,0.768,0.129,1.158,0.129
			L19.255,13.158z M19.463,13.154l-0.012-0.308c0.393-0.015,0.783-0.075,1.16-0.176l0.079,0.297
			C20.292,13.074,19.879,13.137,19.463,13.154z M17.818,12.972c-0.4-0.107-0.791-0.259-1.16-0.453l0.145-0.272
			c0.348,0.183,0.716,0.328,1.093,0.429L17.818,12.972z M20.891,12.909L20.8,12.615c0.372-0.117,0.735-0.275,1.074-0.473
			l0.155,0.266C21.668,12.617,21.285,12.785,20.891,12.909z M16.478,12.418c-0.359-0.207-0.696-0.455-1.001-0.737l0.208-0.226
			c0.289,0.267,0.607,0.5,0.946,0.697L16.478,12.418z M22.206,12.301l-0.165-0.261c0.331-0.209,0.639-0.456,0.916-0.734l0.219,0.218
			C22.882,11.818,22.557,12.079,22.206,12.301z M15.326,11.538c-0.294-0.293-0.556-0.619-0.778-0.97l0.26-0.165
			c0.21,0.331,0.458,0.639,0.736,0.917L15.326,11.538z M23.32,11.374l-0.227-0.208c0.266-0.289,0.502-0.606,0.698-0.946l0.266,0.154
			C23.85,10.732,23.602,11.069,23.32,11.374z M14.44,10.392c-0.209-0.359-0.378-0.742-0.502-1.138l0.294-0.092
			c0.116,0.374,0.275,0.735,0.473,1.074L14.44,10.392z M24.159,10.191l-0.271-0.144c0.183-0.347,0.327-0.714,0.428-1.093
			l0.298,0.079C24.506,9.435,24.354,9.824,24.159,10.191z M13.881,9.055c-0.108-0.4-0.172-0.813-0.188-1.229L14,7.813
			c0.016,0.393,0.076,0.784,0.178,1.161L13.881,9.055z M24.663,8.833l-0.3-0.068c0.085-0.379,0.131-0.771,0.131-1.163l0.308-0.004
			v0.004C24.802,8.017,24.754,8.431,24.663,8.833z M13.995,7.618h-0.307V7.602c0-0.411,0.045-0.821,0.135-1.218l0.299,0.067
			c-0.083,0.375-0.127,0.763-0.127,1.151V7.618z M24.49,7.401c-0.016-0.393-0.075-0.783-0.177-1.161l0.298-0.08
			c0.107,0.4,0.169,0.813,0.187,1.229L24.49,7.401z M14.169,6.26l-0.297-0.078c0.106-0.401,0.258-0.791,0.452-1.159l0.272,0.143
			C14.413,5.514,14.27,5.881,14.169,6.26z M24.261,6.052c-0.117-0.373-0.276-0.735-0.473-1.074l0.266-0.155
			c0.209,0.36,0.377,0.743,0.5,1.139L24.261,6.052z M14.69,4.994l-0.267-0.153c0.207-0.359,0.455-0.696,0.736-1.002l0.226,0.209
			C15.12,4.336,14.886,4.655,14.69,4.994z M23.686,4.81c-0.209-0.331-0.455-0.64-0.734-0.917l0.219-0.217
			c0.293,0.293,0.555,0.621,0.777,0.97L23.686,4.81z M15.522,3.905l-0.218-0.216c0.292-0.295,0.618-0.557,0.968-0.779l0.164,0.26
			C16.106,3.38,15.798,3.627,15.522,3.905z M22.811,3.757c-0.288-0.267-0.604-0.502-0.944-0.698l0.153-0.266
			C22.378,3,22.715,3.249,23.021,3.531L22.811,3.757z M16.604,3.068l-0.155-0.266c0.359-0.209,0.742-0.378,1.138-0.502l0.091,0.294
			C17.305,2.711,16.944,2.87,16.604,3.068z M21.694,2.964c-0.348-0.184-0.715-0.329-1.093-0.43l0.079-0.297
			c0.4,0.107,0.791,0.261,1.158,0.456L21.694,2.964z M17.866,2.539l-0.079-0.297c0.398-0.108,0.811-0.172,1.228-0.189l0.014,0.307
			C18.634,2.376,18.243,2.437,17.866,2.539z M20.411,2.487C20.03,2.4,19.637,2.356,19.244,2.356h-0.021V2.049h0.021
			c0.417,0,0.831,0.046,1.236,0.138L20.411,2.487z"/>
	</g>
	<g display="inline">
		<path fill="#DA7065" d="M17.395,9.285h-0.308V8.517h1.293l0.046,0.053c0.073,0.084,0.154,0.165,0.252,0.245
			c0.053,0.046,0.11,0.086,0.174,0.123l-0.156,0.265c-0.079-0.047-0.148-0.097-0.217-0.153c-0.087-0.074-0.166-0.148-0.237-0.226
			h-0.847V9.285z"/>
		<path fill="#DA7065" d="M19.85,10.957h-1.377v-0.678c-0.004-0.001-0.006-0.003-0.01-0.004v0.151h-1.376V9.657h0.308v0.461h0.761
			v-0.35l0.23,0.132c0.04,0.023,0.085,0.044,0.133,0.062l0.012,0.004c0.05,0.023,0.104,0.047,0.159,0.071l0.091,0.041v0.571h0.762
			v-0.471l0.145-0.008c0.19-0.012,0.377-0.052,0.552-0.121l0.113,0.287c-0.163,0.063-0.33,0.105-0.502,0.127V10.957z"/>
		<path fill="#DA7065" d="M20.563,10.241l-0.145-0.272c0.114-0.062,0.22-0.136,0.315-0.224c0.129-0.118,0.228-0.257,0.299-0.41
			c0.036-0.078,0.063-0.158,0.082-0.24l0.301,0.066c-0.023,0.104-0.06,0.207-0.104,0.304c-0.088,0.189-0.211,0.36-0.369,0.506
			C20.829,10.076,20.7,10.167,20.563,10.241z M21.448,8.925l-0.308-0.019c0.002-0.024,0.002-0.05,0.002-0.076
			c0-0.092-0.018-0.217-0.054-0.381c-0.033-0.152-0.113-0.306-0.234-0.459c-0.033-0.043-0.071-0.086-0.114-0.128l0.212-0.221
			c0.054,0.051,0.104,0.106,0.145,0.16c0.149,0.189,0.248,0.385,0.292,0.582C21.43,8.569,21.45,8.715,21.45,8.83
			C21.45,8.861,21.45,8.893,21.448,8.925z M20.589,7.733c-0.083-0.064-0.18-0.129-0.287-0.191c-0.204-0.117-0.482-0.209-0.821-0.275
			l0.058-0.301c0.379,0.072,0.679,0.174,0.916,0.309c0.121,0.071,0.23,0.143,0.323,0.215L20.589,7.733z M19.276,7.232
			c-0.74-0.111-1.133-0.361-1.17-0.742l0.305-0.03c0.022,0.217,0.346,0.383,0.911,0.469L19.276,7.232z M18.436,6.334l-0.278-0.135
			c0.038-0.074,0.094-0.146,0.165-0.212c0.146-0.128,0.345-0.192,0.595-0.192c0.151,0,0.294,0.015,0.419,0.042
			c0.063,0.016,0.121,0.034,0.175,0.054l-0.105,0.289c-0.046-0.017-0.094-0.031-0.141-0.043c-0.1-0.022-0.219-0.033-0.348-0.033
			c-0.172,0-0.303,0.038-0.389,0.113C18.487,6.254,18.455,6.295,18.436,6.334z"/>
		<path fill="#DA7065" d="M21.341,6.689h-1.295L20,6.64c-0.071-0.079-0.158-0.17-0.242-0.247C19.7,6.34,19.64,6.295,19.578,6.259
			l0.156-0.265c0.079,0.046,0.156,0.104,0.23,0.172c0.075,0.068,0.148,0.144,0.216,0.215h0.853V5.92h0.308V6.689z"/>
		<path fill="#DA7065" d="M21.341,5.549h-0.308V5.088h-0.76v0.358l-0.235-0.151c-0.102-0.064-0.225-0.118-0.387-0.17l-0.109-0.034
			V4.553H18.78v0.489l-0.133,0.017c-0.185,0.024-0.354,0.078-0.523,0.165l-0.012,0.005l-0.139-0.275l0.014-0.006
			c0.154-0.079,0.317-0.136,0.485-0.171V4.246h1.377v0.623c0.041,0.014,0.081,0.029,0.117,0.045V4.78h1.374V5.549z"/>
		<path fill="#DA7065" d="M19.558,9.411c-0.166,0-0.306-0.012-0.424-0.038c-0.073-0.013-0.149-0.035-0.223-0.063l0.111-0.287
			c0.056,0.022,0.113,0.038,0.171,0.048c0.103,0.022,0.222,0.032,0.364,0.032c0.169,0,0.296-0.03,0.405-0.095
			c0.031-0.021,0.059-0.044,0.079-0.07l0.244,0.187c-0.042,0.055-0.098,0.104-0.163,0.146C19.965,9.366,19.782,9.411,19.558,9.411z
			 M20.077,8.835c0-0.075-0.02-0.132-0.063-0.182c-0.051-0.062-0.121-0.117-0.214-0.17c-0.093-0.049-0.196-0.089-0.304-0.115
			c-0.087-0.024-0.172-0.045-0.254-0.061l0.062-0.302c0.088,0.018,0.181,0.04,0.272,0.065c0.127,0.032,0.251,0.081,0.372,0.144
			c0.129,0.074,0.229,0.152,0.302,0.241c0.087,0.103,0.135,0.232,0.135,0.375L20.077,8.835z M19.038,8.271
			c-0.404-0.069-0.735-0.171-0.983-0.303c-0.094-0.05-0.181-0.102-0.258-0.153l0.168-0.256c0.072,0.047,0.149,0.093,0.234,0.138
			c0.218,0.117,0.518,0.208,0.891,0.271L19.038,8.271z M17.612,7.679c-0.075-0.063-0.143-0.128-0.2-0.195
			c-0.155-0.182-0.256-0.365-0.308-0.56c-0.044-0.175-0.067-0.329-0.069-0.472l0.308-0.004c0.002,0.118,0.02,0.249,0.06,0.398
			c0.039,0.149,0.119,0.293,0.243,0.439c0.046,0.054,0.102,0.106,0.163,0.158L17.612,7.679z M17.353,6.257l-0.306-0.038
			c0.018-0.139,0.054-0.273,0.107-0.399c0.077-0.187,0.188-0.357,0.329-0.506c0.087-0.091,0.185-0.174,0.291-0.244l0.171,0.256
			c-0.087,0.057-0.166,0.125-0.238,0.2c-0.116,0.124-0.206,0.258-0.27,0.413C17.395,6.04,17.366,6.147,17.353,6.257z"/>
	</g>
</g>
<g display="none">
	<path display="inline" fill="#41B3B2" d="M28.6,4.473h-6.208c0.855,0.762,1.583,1.656,2.152,2.652H28.6
		c0.734,0,1.327-0.594,1.327-1.328C29.927,5.068,29.334,4.473,28.6,4.473z"/>
	<path display="inline" fill="#41B3B2" d="M28.6,7.817h-3.694c0.396,0.831,0.689,1.719,0.86,2.653H28.6
		c0.734,0,1.327-0.595,1.327-1.328C29.927,8.411,29.334,7.817,28.6,7.817z"/>
	<path display="inline" fill="#41B3B2" d="M28.6,3.783c0.734,0,1.327-0.594,1.327-1.325c0-0.734-0.593-1.328-1.327-1.328H18.78
		c-0.571,0-1.055,0.363-1.239,0.867c1.468,0.312,2.82,0.934,3.996,1.786H28.6z"/>
	<path display="inline" fill="#41B3B2" d="M28.6,11.16h-2.729c0.045,0.4,0.077,0.804,0.077,1.215c0,0.49-0.048,0.964-0.109,1.436
		H28.6c0.734,0,1.327-0.592,1.327-1.327C29.927,11.755,29.334,11.16,28.6,11.16z"/>
	<path display="inline" fill="#41B3B2" d="M29.927,15.83c0-0.731-0.593-1.325-1.327-1.325h-2.868
		c-0.093,0.46-0.22,0.909-0.374,1.344h4.569C29.927,15.841,29.927,15.835,29.927,15.83z"/>
	<path display="inline" fill="#FFFFFF" d="M28.6,17.156c0.726,0,1.315-0.583,1.327-1.307h-4.569
		c-0.159,0.449-0.348,0.885-0.562,1.307H28.6z"/>
	<path display="inline" fill="#41B3B2" d="M2.076,13.592h2.725c-0.045-0.4-0.073-0.803-0.073-1.216c0-0.488,0.043-0.967,0.106-1.437
		H2.076c-0.734,0-1.328,0.595-1.328,1.325C0.748,12.998,1.342,13.592,2.076,13.592z"/>
	<path display="inline" fill="#41B3B2" d="M4.907,14.283H2.076c-0.734,0-1.328,0.593-1.328,1.324c0,0.083,0.009,0.162,0.022,0.242
		h4.553C5.146,15.342,5.004,14.822,4.907,14.283z"/>
	<path display="inline" fill="#FFFFFF" d="M2.076,16.936h3.694c-0.168-0.354-0.317-0.718-0.447-1.087H0.771
		C0.884,16.466,1.424,16.936,2.076,16.936z"/>
	<path display="inline" fill="#41B3B2" d="M2.076,10.249h2.867c0.191-0.937,0.513-1.825,0.934-2.653h-3.8
		c-0.734,0-1.328,0.594-1.328,1.325C0.748,9.654,1.342,10.249,2.076,10.249z"/>
	<path display="inline" fill="#FFFFFF" d="M6.128,17.625H2.076c-0.734,0-1.328,0.596-1.328,1.324c0,0.734,0.594,1.33,1.328,1.33
		H8.28C7.429,19.516,6.702,18.625,6.128,17.625z"/>
	<path display="inline" fill="#FFFFFF" d="M2.076,20.971c-0.734,0-1.328,0.592-1.328,1.322c0,0.734,0.594,1.33,1.328,1.33h9.818
		c0.57,0,1.051-0.363,1.24-0.869c-1.47-0.313-2.82-0.936-3.996-1.783H2.076z"/>
	<path display="inline" fill="#41B3B2" d="M8.705,12.375c0-3.655,2.977-6.632,6.632-6.632s6.631,2.977,6.631,6.632
		c0,1.273-0.361,2.462-0.986,3.474h2.964c0.434-1.073,0.674-2.246,0.674-3.474c0-5.12-4.163-9.285-9.282-9.285
		c-5.12,0-9.285,4.165-9.285,9.285c0,1.228,0.24,2.4,0.675,3.474h2.964C9.067,14.837,8.705,13.648,8.705,12.375z"/>
	<path display="inline" fill="#FFFFFF" d="M15.337,21.659c3.892,0,7.231-2.406,8.608-5.81h-2.964
		c-1.168,1.894-3.26,3.157-5.645,3.157c-2.383,0-4.477-1.264-5.646-3.157H6.727C8.105,19.252,11.445,21.659,15.337,21.659z"/>
	<path display="inline" fill="#41B3B2" d="M18.727,14.143c0-1.855-1.41-2.325-3.004-2.665V9.187
		c1.336,0.025,1.324,1.316,2.109,1.316c0.409,0,0.762-0.277,0.762-0.749c0-1.183-1.932-1.77-2.871-1.798V7.313
		c0-0.203-0.158-0.409-0.364-0.409c-0.203,0-0.357,0.206-0.357,0.409v0.642c-1.507,0.05-2.871,0.896-2.871,2.535
		c0,1.336,1.082,2.122,2.871,2.445v2.521c-2.006-0.082-0.955-1.747-2.307-1.747c-0.455,0-0.746,0.278-0.746,0.758
		c0,0.452,0.228,0.962,0.683,1.38h5.418C18.48,15.436,18.727,14.871,18.727,14.143z M15.001,11.348
		c-0.907-0.182-1.355-0.53-1.355-1.137c0-0.518,0.531-1,1.355-1.025V11.348z M15.723,15.458V13.07
		c0.651,0.146,1.485,0.383,1.485,1.207C17.208,15.07,16.446,15.411,15.723,15.458z"/>
	<path display="inline" fill="#FFFFFF" d="M15.001,17.436c0,0.205,0.155,0.412,0.357,0.412c0.207,0,0.364-0.207,0.364-0.412v-0.748
		c0.989-0.059,1.799-0.335,2.326-0.839h-5.418c0.506,0.465,1.295,0.814,2.37,0.839V17.436z"/>
</g>
<g>
	<path fill="#4169B2" d="M26.485,12.207c0-0.935-0.25-2.355-0.563-3.235l-2.313-6.469c-0.198-0.547-0.595-0.986-1.124-1.236
		c-0.529-0.245-1.121-0.275-1.672-0.073l-6.865,2.498c-1.09,0.397-1.818,1.603-1.649,2.749l0.05,0.392
		c0.083,0.585,0.401,1.093,0.875,1.4c0.474,0.306,1.068,0.383,1.633,0.219l3.824-1.12c0.216-0.062,0.4-0.043,0.525,0.047
		c0.143,0.108,0.172,0.289,0.172,0.427v0.414l1.25,0.624V5.436l-2.301,0.699l-3.821,1.121c-0.219,0.063-0.439,0.037-0.606-0.07
		c-0.169-0.112-0.285-0.297-0.314-0.53l-0.056-0.388c-0.079-0.556,0.313-1.214,0.838-1.404l6.87-2.499
		c0.234-0.085,0.488-0.072,0.713,0.036c0.228,0.103,0.395,0.292,0.481,0.525l2.313,6.469c0.268,0.741,0.492,2.029,0.492,2.817v3.63
		h1.247V12.207z"/>
	<path fill="#4169B2" d="M7.371,11.256c1.163-1.469,3.244-2.228,5.385-2.262c-0.475-0.318-0.797-0.84-0.884-1.438L11.82,7.146
		c-0.026-0.158-0.03-0.318-0.022-0.478c-1.955-0.883-3.493-2.295-3.95-5.079c-2.566,3.24-5.134,6.482-7.7,9.725
		c0.37,2.265,1.456,3.623,2.901,4.527h4.734C6.233,14.835,6.082,12.886,7.371,11.256z"/>
	<path fill="#4169B2" d="M23.859,14.271c-0.629-3.846-3.326-5.078-6.341-5.914l-2.783,0.817c0.041,0.01,0.079,0.014,0.113,0.022
		c2.766,0.59,3.387,3.114,1.782,5.139c-0.503,0.637-1.184,1.139-1.964,1.506h7.95C23.028,15.318,23.445,14.794,23.859,14.271z"/>
	<polygon fill="#4169B2" points="30.525,10.209 27.162,10.196 27.162,15.841 30.525,15.841 	"/>
	<path fill="#4169B2" d="M14.068,9.889c-0.107,0.138-0.219,0.276-0.327,0.414c-0.572-0.137-1.121-0.12-1.632,0.047
		c-0.513,0.174-0.892,0.414-1.146,0.729c-0.28,0.357-0.354,0.676-0.229,0.956c0.134,0.276,0.468,0.538,1.016,0.776
		c-0.447,0.568-0.899,1.137-1.348,1.705c-0.456-0.147-0.68-0.366-0.668-0.646c0.005-0.159,0.108-0.384,0.311-0.673
		C9.8,13.128,9.555,13.064,9.31,12.99c-0.285,0.359-0.431,0.665-0.44,0.923c-0.016,0.474,0.362,0.835,1.16,1.08
		c-0.165,0.2-0.323,0.407-0.483,0.604c0.135,0.035,0.268,0.069,0.406,0.1c0.159-0.203,0.319-0.4,0.477-0.608
		c0.547,0.091,1.008,0.104,1.379,0.048c0.668-0.107,1.219-0.426,1.658-0.981c0.305-0.389,0.35-0.733,0.128-1.03
		c-0.138-0.181-0.481-0.426-1.033-0.723c0.405-0.509,0.806-1.012,1.207-1.525c0.388,0.108,0.581,0.289,0.595,0.547
		c0.004,0.142-0.053,0.293-0.156,0.457c0.246,0.064,0.49,0.133,0.732,0.203c0.267-0.357,0.34-0.689,0.21-0.987
		c-0.129-0.292-0.459-0.53-1.003-0.698c0.108-0.133,0.217-0.271,0.323-0.409C14.336,9.954,14.203,9.92,14.068,9.889z M12.673,13.4
		c0.156,0.203,0.126,0.436-0.077,0.694c-0.133,0.167-0.296,0.297-0.491,0.398c-0.375,0.195-0.814,0.239-1.311,0.135
		c0.432-0.547,0.866-1.093,1.306-1.641C12.397,13.143,12.586,13.285,12.673,13.4z M12.204,12.241
		c-0.28-0.125-0.469-0.271-0.56-0.435c-0.095-0.164-0.061-0.354,0.104-0.555c0.133-0.172,0.344-0.314,0.624-0.432
		c0.28-0.116,0.612-0.133,0.999-0.052C12.98,11.26,12.591,11.75,12.204,12.241z"/>
	<polygon fill="#FFFFFF" points="30.525,20.022 30.525,15.841 27.162,15.841 27.162,20.002 	"/>
	<path fill="#FFFFFF" d="M16.159,23.997c2.151-2.717,4.303-5.436,6.457-8.155h-7.95c-1.608,0.759-3.652,0.945-5.512,0.548
		c-0.539-0.114-0.996-0.304-1.371-0.548H3.049C7.41,18.571,15.042,17.167,16.159,23.997z"/>
	<path fill="#FFFFFF" d="M24.298,18.936h-3.199c-0.327,0.418-0.654,0.832-0.987,1.248h4.187c1.206,0,2.188-0.982,2.188-2.188v-2.155
		h-1.247V18C25.238,18.518,24.815,18.94,24.298,18.936z"/>
</g>
</svg>
