<?xml version="1.0" encoding="utf-8"?>
<!-- Generator: Adobe Illustrator 16.0.0, SVG Export Plug-In . SVG Version: 6.00 Build 0)  -->
<!DOCTYPE svg PUBLIC "-//W3C//DTD SVG 1.1//EN" "http://www.w3.org/Graphics/SVG/1.1/DTD/svg11.dtd">
<svg version="1.1" id="圖層_1" xmlns="http://www.w3.org/2000/svg" xmlns:xlink="http://www.w3.org/1999/xlink" x="0px" y="0px"
	 width="595.281px" height="475.768px" viewBox="0 0 595.281 475.768" enable-background="new 0 0 595.281 475.768"
	 xml:space="preserve">
<path d="M78.161,347.29"/>
<path d="M522.842,437.473"/>
<g>
	<path fill="#FFFFFF" d="M218.508,289.012c-25.878,0-46.86,21.306-46.86,47.602c0,26.276,20.982,47.6,46.86,47.6
		c25.899,0,46.886-21.323,46.886-47.6C265.395,310.318,244.407,289.012,218.508,289.012z M218.508,352.342
		c-8.537,0-15.47-7.039-15.47-15.729s6.933-15.729,15.47-15.729c8.558,0,15.514,7.039,15.514,15.729
		C234.022,345.284,227.085,352.342,218.508,352.342z"/>
	<path fill="#FFFFFF" d="M475.948,176.402h-98.792v97.112c0,0,2.577-0.645,15.49-0.645c28.795,0,43.388,14.36,50.396,25.44
		c3.664-3.864,8.783-6.312,14.482-6.312h46.884v-71.396L475.948,176.402z M484.32,251.204h-53.574v-54.391h40.178l13.396,21.671
		V251.204L484.32,251.204z"/>
	<path fill="#FFFFFF" d="M155.742,244.392c0,0,110.493,20.831,125.143,74.807h50.64c0,0,6.298-33.997,32.251-43.351V162.796h117.816
		l19.472-27.187H350.377l-18.424,40.793H136.067v27.203h20.088L155.742,244.392z"/>
	<path fill="#FFFFFF" d="M457.523,305.595c-3.12,0-5.624,2.22-6.371,5.159c-0.131,0.533-0.316,1.067-0.316,1.632v13.607
		c0,3.751,2.986,6.808,6.688,6.808h46.884c3.699,0,6.688-3.057,6.688-6.808v-13.607c0-3.737-2.989-6.792-6.688-6.792
		L457.523,305.595L457.523,305.595L457.523,305.595z"/>
	<path fill="#FFFFFF" d="M439.438,334.702c-0.169-4.215-0.821-8.309-1.999-12.182c-5.924-19.41-23.713-33.506-44.792-33.506
		c-25.881,0-46.864,21.307-46.864,47.6c0,26.277,20.983,47.603,46.864,47.603c25.899,0,46.885-21.325,46.885-47.603
		C439.531,335.969,439.454,335.343,439.438,334.702z M392.646,352.342c-8.559,0-15.49-7.039-15.49-15.729s6.932-15.729,15.49-15.729
		s15.492,7.039,15.492,15.729C408.139,345.284,401.205,352.342,392.646,352.342z"/>
	<polygon fill="#FFFFFF" points="334.758,132.351 327.769,115.216 307.681,115.216 290.097,88.015 264.14,88.015 236.524,122.011 
		215.313,122.011 196.351,142.406 181.827,142.406 159.498,162.796 320.236,162.796 	"/>
</g>
<path d="M341.942,182.196"/>
</svg>
