<?xml version="1.0" encoding="utf-8"?>
<!-- Generator: Adobe Illustrator 16.0.0, SVG Export Plug-In . SVG Version: 6.00 Build 0)  -->
<!DOCTYPE svg PUBLIC "-//W3C//DTD SVG 1.1//EN" "http://www.w3.org/Graphics/SVG/1.1/DTD/svg11.dtd">
<svg version="1.1" id="圖層_1" xmlns="http://www.w3.org/2000/svg" xmlns:xlink="http://www.w3.org/1999/xlink" x="0px" y="0px"
	 width="595.281px" height="436.273px" viewBox="0 203.049 595.281 436.273" enable-background="new 0 203.049 595.281 436.273"
	 xml:space="preserve">
<g>
	<path fill="#2C559B" d="M139.648,499.042c-38.131,0-69.049,31.395-69.049,70.141c0,38.719,30.918,70.139,69.049,70.139
		c38.163,0,69.087-31.42,69.087-70.139C208.735,530.437,177.811,499.042,139.648,499.042z M139.648,592.359
		c-12.58,0-22.795-10.373-22.795-23.176c0-12.805,10.215-23.176,22.795-23.176c12.611,0,22.86,10.371,22.86,23.176
		C162.508,581.958,152.286,592.359,139.648,592.359z"/>
	<path fill="#2C559B" d="M518.99,333.11H373.417v143.095c0,0,3.799-0.949,22.825-0.949c42.432,0,63.935,21.16,74.262,37.486
		c5.396-5.695,12.94-9.301,21.34-9.301h69.083V398.238L518.99,333.11z M531.327,443.33h-78.942v-80.146h59.201l19.741,31.931V443.33
		L531.327,443.33z"/>
	<path fill="#2C559B" d="M47.161,433.292c0,0,162.813,30.695,184.4,110.229h74.618c0,0,9.28-50.096,47.523-63.879V313.059h173.605
		L555.997,273H333.959l-27.147,60.11H18.17v40.081h29.6L47.161,433.292z"/>
	<path d="M47.161,433.292"/>
	<path fill="#2C559B" d="M491.842,523.476c-4.598,0-8.287,3.271-9.39,7.604c-0.192,0.783-0.468,1.572-0.468,2.404v20.051
		c0,5.527,4.405,10.029,9.857,10.029h69.083c5.452,0,9.857-4.502,9.857-10.029v-20.051c0-5.508-4.405-10.01-9.857-10.01h-69.083
		V523.476z"/>
	<path d="M491.842,523.476"/>
	<path fill="#2C559B" d="M465.189,566.367c-0.248-6.213-1.21-12.244-2.945-17.953c-8.728-28.6-34.942-49.369-66.001-49.369
		c-38.135,0-69.055,31.395-69.055,70.139c0,38.719,30.92,70.141,69.055,70.141c38.163,0,69.085-31.422,69.085-70.141
		C465.328,568.232,465.216,567.31,465.189,566.367z M396.243,592.359c-12.61,0-22.825-10.373-22.825-23.176
		c0-12.805,10.215-23.176,22.825-23.176c12.611,0,22.827,10.371,22.827,23.176C419.07,581.958,408.854,592.359,396.243,592.359z"/>
	<polygon fill="#2C559B" points="310.942,268.199 300.645,242.949 271.044,242.949 245.135,202.868 206.887,202.868 
		166.194,252.963 134.94,252.963 106.999,283.015 85.598,283.015 52.695,313.059 289.547,313.059 	"/>
	<path d="M310.942,268.199"/>
	<rect x="18.17" y="203.049" fill="none" width="556.577" height="436.363"/>
</g>
</svg>
